<?xml version="1.0" encoding="UTF-8" standalone="no"?>
<!-- Created with Inkscape (http://www.inkscape.org/) -->

<svg
   xmlns:dc="http://purl.org/dc/elements/1.1/"
   xmlns:cc="http://creativecommons.org/ns#"
   xmlns:rdf="http://www.w3.org/1999/02/22-rdf-syntax-ns#"
   xmlns:svg="http://www.w3.org/2000/svg"
   xmlns="http://www.w3.org/2000/svg"
   xmlns:xlink="http://www.w3.org/1999/xlink"
   xmlns:sodipodi="http://sodipodi.sourceforge.net/DTD/sodipodi-0.dtd"
   xmlns:inkscape="http://www.inkscape.org/namespaces/inkscape"
   width="210mm"
   height="297mm"
   viewBox="0 0 210 297"
   version="1.1"
   id="svg8"
   inkscape:version="0.92.4 (5da689c313, 2019-01-14)"
   sodipodi:docname="cat-stuff.svg"
   inkscape:export-filename="/home/william/Git/williamchung.me/art175/cat/img/cat-anim.svg.png"
   inkscape:export-xdpi="96.300003"
   inkscape:export-ydpi="96.300003">
  <defs
     id="defs2">
    <pattern
       inkscape:collect="always"
       xlink:href="#pattern2498"
       id="pattern2321"
       patternTransform="matrix(0.26458333,0,0,0.26458333,70.551953,178.03978)" />
    <pattern
       inkscape:isstock="true"
       inkscape:stockid="Stripes 1:1"
       id="Strips1_1"
       patternTransform="translate(0,0) scale(10,10)"
       height="1"
       width="2"
       patternUnits="userSpaceOnUse"
       inkscape:collect="always">
      <rect
         id="rect1599"
         height="2"
         width="1"
         y="-0.5"
         x="0"
         style="fill:black;stroke:none" />
    </pattern>
    <pattern
       patternUnits="userSpaceOnUse"
       width="19.64251"
       height="103.03555"
       patternTransform="matrix(0.26458333,0,0,0.26458333,68.688263,135.56921)"
       id="pattern2498">
      <rect
         y="0"
         x="0"
         height="103.03555"
         width="4.9106226"
         id="rect2490"
         style="fill:#ffa400;fill-opacity:1;fill-rule:evenodd;stroke:none;stroke-width:1.37952757;stroke-linecap:butt;stroke-linejoin:round;stroke-miterlimit:4;stroke-dasharray:none;stroke-opacity:1;paint-order:normal" />
      <rect
         style="fill:#ffffff;fill-opacity:1;fill-rule:evenodd;stroke:none;stroke-width:1.37952757;stroke-linecap:butt;stroke-linejoin:round;stroke-miterlimit:4;stroke-dasharray:none;stroke-opacity:1;paint-order:normal"
         id="rect2492"
         width="4.9106226"
         height="103.03555"
         x="4.9106293"
         y="0" />
      <rect
         y="0"
         x="9.8212585"
         height="103.03555"
         width="4.9106226"
         id="rect2494"
         style="fill:#ffa400;fill-opacity:1;fill-rule:evenodd;stroke:none;stroke-width:1.37952757;stroke-linecap:butt;stroke-linejoin:round;stroke-miterlimit:4;stroke-dasharray:none;stroke-opacity:1;paint-order:normal" />
      <rect
         style="fill:#ffffff;fill-opacity:1;fill-rule:evenodd;stroke:none;stroke-width:1.37952757;stroke-linecap:butt;stroke-linejoin:round;stroke-miterlimit:4;stroke-dasharray:none;stroke-opacity:1;paint-order:normal"
         id="rect2496"
         width="4.9106226"
         height="103.03555"
         x="14.731888"
         y="0" />
    </pattern>
  </defs>
  <sodipodi:namedview
     id="base"
     pagecolor="#ffffff"
     bordercolor="#666666"
     borderopacity="1.0"
     inkscape:pageopacity="0.0"
     inkscape:pageshadow="2"
     inkscape:zoom="1.9599765"
     inkscape:cx="463.66255"
     inkscape:cy="141.14309"
     inkscape:document-units="mm"
     inkscape:current-layer="layer1"
     showgrid="false"
     inkscape:window-width="1600"
     inkscape:window-height="1150"
     inkscape:window-x="0"
     inkscape:window-y="25"
     inkscape:window-maximized="1"
     inkscape:snap-bbox="true"
     inkscape:bbox-nodes="true"
     inkscape:snap-center="true" />
  <metadata
     id="metadata5">
    <rdf:RDF>
      <cc:Work
         rdf:about="">
        <dc:format>image/svg+xml</dc:format>
        <dc:type
           rdf:resource="http://purl.org/dc/dcmitype/StillImage" />
        <dc:title />
      </cc:Work>
    </rdf:RDF>
  </metadata>
  <g
     inkscape:label="Layer 1"
     inkscape:groupmode="layer"
     id="layer1">
    <rect
       style="fill:#ffffff;fill-opacity:1;fill-rule:evenodd;stroke:none;stroke-width:0.3414101;stroke-linecap:butt;stroke-linejoin:round;stroke-miterlimit:4;stroke-dasharray:none;stroke-opacity:1;paint-order:normal"
       id="rect2546"
       width="64.546867"
       height="25.159166"
       x="3.0673499"
       y="162.99557"
       inkscape:export-xdpi="96.300003"
       inkscape:export-ydpi="96.300003" />
    <rect
       y="162.99557"
       x="67.61422"
       height="25.159166"
       width="64.546867"
       id="rect2548"
       style="fill:#ffffff;fill-opacity:1;fill-rule:evenodd;stroke:none;stroke-width:0.3414101;stroke-linecap:butt;stroke-linejoin:round;stroke-miterlimit:4;stroke-dasharray:none;stroke-opacity:1;paint-order:normal"
       inkscape:export-xdpi="96.300003"
       inkscape:export-ydpi="96.300003" />
    <rect
       y="162.99557"
       x="132.16109"
       height="25.159166"
       width="64.546867"
       id="rect2550"
       style="fill:#ffffff;fill-opacity:1;fill-rule:evenodd;stroke:none;stroke-width:0.3414101;stroke-linecap:butt;stroke-linejoin:round;stroke-miterlimit:4;stroke-dasharray:none;stroke-opacity:1;paint-order:normal"
       inkscape:export-xdpi="96.300003"
       inkscape:export-ydpi="96.300003" />
    <rect
       style="fill:#ffffff;fill-opacity:1;fill-rule:evenodd;stroke:none;stroke-width:0.3414101;stroke-linecap:butt;stroke-linejoin:round;stroke-miterlimit:4;stroke-dasharray:none;stroke-opacity:1;paint-order:normal"
       id="rect2552"
       width="64.546867"
       height="25.159166"
       x="196.70795"
       y="162.99557"
       inkscape:export-xdpi="96.300003"
       inkscape:export-ydpi="96.300003" />
    <rect
       y="162.99557"
       x="261.25482"
       height="25.159166"
       width="64.546867"
       id="rect2554"
       style="fill:#ffffff;fill-opacity:1;fill-rule:evenodd;stroke:none;stroke-width:0.3414101;stroke-linecap:butt;stroke-linejoin:round;stroke-miterlimit:4;stroke-dasharray:none;stroke-opacity:1;paint-order:normal"
       inkscape:export-xdpi="96.300003"
       inkscape:export-ydpi="96.300003" />
    <path
       style="fill:#000000;stroke:#000000;stroke-width:0.26458332px;stroke-linecap:butt;stroke-linejoin:miter;stroke-opacity:1;fill-opacity:1"
       d="M 6.6817382,49.241146 C 13.0697,44.264953 21.337977,40.757841 30.201456,37.080385 c 1.652054,-0.685438 5.379817,0.121742 7.100247,0.610851 3.142546,0.89341 4.825239,3.456914 8.564089,4.409948 3.020392,0.7699 9.726269,0.203811 9.726269,0.203811 l 1.80407,-2.151011 0.267268,3.00678 c 0,0 1.782429,2.150308 1.941063,3.756595 0.06856,0.694217 -0.01285,1.629956 -0.601355,2.004523 -0.968531,0.616442 -1.979918,0.314965 -3.076959,0.01957 -0.704481,-0.189691 -1.142188,-0.604611 -1.870887,-0.568932 -0.667374,0.03268 -1.603616,1.202714 -1.603616,1.202714 0,0 2.082347,1.881035 3.274052,2.605876 0.792163,0.481824 1.614532,1.06573 2.539061,1.135896 1.666437,0.720514 1.831302,0.541951 2.648375,1.670434 0.414909,0.573043 -0.757838,1.167861 -1.445664,1.002262 -2.606329,-0.627494 -4.404905,-1.80375 -6.696561,-2.956178 -1.021027,-0.513455 -2.380227,-1.057594 -3.392864,-1.587405 -0.575357,-0.301027 -1.804069,-0.734992 -1.804069,-0.734992 0,0 -0.935444,1.33635 -0.868625,1.603619 0.06682,0.267269 0.09576,1.835339 0.534538,2.605878 0.327687,0.575448 1.480658,0.674225 1.469982,1.336347 -0.01274,0.789864 -1.014556,1.563575 -1.804069,1.536801 -1.51081,-0.05123 -1.485035,-2.771728 -2.035554,-3.708774 -0.471157,-0.801962 -0.882153,-0.867329 -1.085291,-1.775 -0.196748,-0.879118 -0.353658,-2.200226 -0.353658,-2.200226 0,0 -2.637784,-0.04726 -3.624352,-0.601356 -1.312136,-0.736946 -1.413324,-2.617348 -2.711835,-3.378044 -0.672097,-0.393728 -1.504906,-0.46722 -2.283255,-0.497363 -0.651528,-0.02523 -1.937705,0.267269 -1.937705,0.267269 0,0 0.650657,1.343235 0.467722,2.00452 -0.256176,0.926037 -1.136717,1.658919 -2.00452,2.071338 -0.706653,0.335833 -1.580117,0.0085 -2.33861,0.200454 -0.541526,0.137015 -1.5368,0.668173 -1.5368,0.668173 0,0 0.361412,1.231484 0.734991,1.737252 0.432047,0.584925 1.229802,0.824679 1.670436,1.403164 0.3563,0.467767 0.942905,1.053594 0.734991,1.603619 -0.155125,0.410376 -0.764019,0.53895 -1.202713,0.534538 -0.787096,-0.0079 -1.528425,-0.504456 -2.138156,-1.002261 -0.924751,-0.754998 -1.399389,-1.935379 -2.138157,-2.873147 -0.861183,-1.093157 -1.226321,-2.452184 -2.672695,-3.207235 -0.61302,-0.320015 0.39278,-0.702026 0.668174,-1.336346 0.334712,-0.770948 1.045911,-1.349461 1.336347,-2.138156 0.210075,-0.570469 0.409757,-1.213084 0.26727,-1.80407 -0.04491,-0.186258 -0.334087,-0.467722 -0.334087,-0.467722 0,0 -4.408276,1.929753 -7.149459,3.073599 -1.437214,0.599723 -3.33788,1.468845 -4.744035,2.138156 -1.606451,0.764649 -3.1221205,3.222536 -4.8108511,3.407687 C 7.0878667,51.979203 6.3782607,51.721739 6.0135642,51.24567 5.7817194,50.943023 6.38098,49.475435 6.6817382,49.241146 Z"
       id="path873"
       inkscape:connector-curvature="0"
       sodipodi:nodetypes="sssscccsssscscsssscsssssscssscssscsssssscssscsssss" />
    <path
       sodipodi:nodetypes="sssccccssccscsssssscssssssssccssssccssssss"
       inkscape:connector-curvature="0"
       id="path875"
       d="m 61.990548,53.349499 c 6.6242,-1.479913 10.02603,-9.003022 18.51154,-14.23963 1.52209,-0.939321 7.553183,-1.43741 9.273613,-0.948301 3.14254,0.89341 6.00641,5.110561 9.74526,6.063594 2.419699,0.536394 4.465259,-0.656381 7.033189,0.770775 l 1.80407,-2.151011 0.26727,3.00678 c 0,0 1.4517,1.866826 1.61033,3.473113 0.0686,0.694217 -0.0129,1.629956 -0.60135,2.004523 -0.96853,0.616442 -2.00658,0.400397 -3.07696,0.01957 -2.20224,-0.742122 -2.03249,-1.358449 -4.52541,-0.01842 -1.01847,0.518516 -2.474719,1.540992 -3.487349,1.011181 -0.57536,-0.301027 -1.89857,-0.92398 -1.89857,-0.92398 0,0 -0.46298,0.911127 -0.39616,1.178396 0.0668,0.267269 1.22973,2.024327 1.66847,2.794866 0.32769,0.575448 1.43342,0.815966 1.42274,1.478088 -0.0127,0.789864 -1.20354,0.949364 -1.99306,0.92259 -1.51081,-0.05123 -2.09924,-2.346505 -2.64976,-3.283551 -0.47116,-0.801962 -0.88215,-0.961823 -1.08529,-1.869494 -0.19675,-0.879118 -0.0702,-1.869497 -0.0702,-1.869497 0,0 -0.32268,-0.708718 -1.30925,-1.262814 -1.31214,-0.736946 -2.17494,-2.049235 -3.42054,-1.204681 -2.17535,1.474953 -0.58147,1.945649 -1.3172,3.54061 -0.6948,1.50622 -0.94028,0.852151 -0.85908,1.729943 0.2349,2.539264 3.51329,1.856464 3.05858,1.838855 -0.65153,-0.02523 3.89455,1.544198 1.36958,2.204397 -2.10348,0.54999 -5.82218,-1.113611 -7.800503,-2.531195 -0.78101,-0.55964 0.0917,-1.506631 -0.16189,-3.456563 -0.1009,-0.775868 -0.87141,-0.463971 -1.6299,-0.272017 -0.49875,0.350382 -0.94728,1.478987 -0.80181,1.69672 0.43204,0.584925 0.21014,1.611383 0.86723,1.922881 1.58472,0.751249 2.17133,1.289829 1.96341,1.839854 -0.15512,0.410376 -0.76402,0.53895 -1.20271,0.534538 -0.7871,-0.0079 -1.52842,-0.504456 -2.13816,-1.002261 -0.92475,-0.754998 -1.8246,-2.691331 -2.56337,-3.629099 -0.3382,-0.982305 -1.72775,-0.812592 -1.23514,-1.815294 0.71593,-1.428711 1.65669,-4.700306 -1.43698,-4.68139 -0.95335,0.0058 -0.25054,1.362789 -2.5665,3.168093 -1.22825,0.95743 -2.84569,2.780658 -3.98808,3.839049 -1.80896,1.675936 -3.71111,2.707406 -5.37782,2.793476 -0.5989,0.03093 -1.30574,-0.192102 -1.67043,-0.668171 -0.23185,-0.302647 0.2961,-1.921399 0.66817,-2.004524 z"
       style="fill:#000000;fill-opacity:1;stroke:#000000;stroke-width:0.26458332px;stroke-linecap:butt;stroke-linejoin:miter;stroke-opacity:1" />
    <path
       style="fill:#000000;fill-opacity:1;stroke:#000000;stroke-width:0.26458332px;stroke-linecap:butt;stroke-linejoin:miter;stroke-opacity:1"
       d="m 138.79419,38.433019 c 3.14254,0.89341 4.589,1.094564 8.32785,2.047597 4.68756,0.678135 11.7413,-4.719625 15.77389,-3.859434 l 2.74901,-3.095951 0.26727,3.00678 c 0,0 3.29433,1.914073 3.45296,3.52036 0.0686,0.694217 -0.0129,1.629962 -0.60135,2.004522 -0.96853,0.61644 -2.00658,0.4004 -3.07696,0.0196 -2.20224,-0.74212 -2.6467,0.200704 -5.13962,1.540752 -1.01847,0.51852 -7.90813,11.037641 -8.92076,10.507831 -2.07324,-0.35121 -5.85594,-0.82893 -5.23767,-2.69202 0.50619,-1.52538 2.98873,0.48555 4.75519,0.79701 0.75814,-1.18038 1.34129,-1.8035 1.10305,-3.1266 -4.7372,1.06123 -10.18423,0.45509 -11.94521,0.82676 -1.20562,0.25445 -1.9571,1.91973 -3.92916,3.08118 -1.42928,0.84178 -1.71693,0.61386 -1.66228,1.4937 0.0932,1.49983 2.88806,0.98469 4.00352,0.94116 1.47418,-0.0575 2.85511,1.68594 0.33014,2.34614 -2.23664,-0.27074 -7.55813,-1.86343 -9.35044,-2.64875 0.4491,-3.84551 1.72096,-0.26611 1.53631,-3.5605 -0.065,-1.15993 -1.71813,-2.06079 -2.89227,-3.436434 -0.95335,0.0058 0.17468,0.03987 -2.14128,1.845174 -1.22825,0.95743 -2.51496,2.30819 -5.12201,3.22484 -2.32637,0.81796 -7.49087,0.86477 -9.15758,0.95084 -0.5989,0.0309 -1.49473,-0.71182 -1.38695,-1.8021 0.0375,-0.37939 2.036,-0.51913 2.41631,-0.49261 11.09418,0.77353 14.78649,-12.522744 25.84804,-13.439847 z"
       id="path877"
       inkscape:connector-curvature="0"
       sodipodi:nodetypes="cccccsscccaccssssccscsssssc" />
    <path
       sodipodi:nodetypes="sccccsscccscaccsssscsssssssssssss"
       inkscape:connector-curvature="0"
       id="path879"
       d="m 209.04625,38.811349 c 3.26578,0.0921 6.9707,-2.22409 10.57425,-0.84507 4.57769,1.21567 4.79159,-1.192 8.69765,0.12877 l 1.68543,-2.02228 -0.0822,3.01751 c 0,0 1.9818,2.41584 1.9536,4.02969 -0.0121,0.69749 -0.2013,1.61753 -0.82912,1.92153 -1.03332,0.5003 -2.03942,0.16567 -3.05858,-0.33636 -2.10165,-0.99181 -2.40159,-1.34287 -3.34562,-0.93483 -0.14439,0.0535 -0.49825,0.0728 -0.88919,0.4691 0.45759,0.96007 1.4345,2.32993 1.20476,2.6791 -2.58425,3.92773 -4.45256,5.88038 -5.17988,5.30534 -2.01872,-0.58861 -3.16357,-1.98966 -2.53591,-3.19614 0.2735,-0.52571 0.92471,-0.25786 1.77468,0.10545 1.20694,-0.90103 1.59097,-0.14959 1.50733,-1.49137 -0.45287,-0.84747 -1.18362,-2.33273 -1.83654,-1.80243 -5.63218,4.57446 -14.72894,3.21869 -16.27321,3.36133 -1.22696,0.11334 -1.33743,-1.06883 -5.4403,0.85798 -1.81345,0.85165 -3.74372,1.9499 -6.12425,1.71912 -1.15633,-0.1121 0,0 -1.9085,-0.58231 -0.94765,-0.1043 0.0744,-1.5465 -2.43479,-0.0212 -1.33073,0.80897 -2.15081,0.44272 -3.33446,1.19346 -0.96874,0.61443 -2.45418,0.98045 -3.3386,2.12702 -1.01675,1.31813 -1.40572,3.38311 -2.07792,3.29731 -1.25691,-0.16045 -0.68228,-1.29283 -0.44914,-2.36333 0.0811,-0.37251 2.528,-3.54502 2.82456,-3.7846 1.3796,-1.11456 1.40397,-0.90392 2.29919,-1.84145 0.3887,-0.40707 0.57007,-1.40254 -0.88648,-0.86671 -2.6318,0.96817 -7.22984,2.90002 -10.01436,3.71584 -1.78736,0.52367 -2.05177,-0.35444 -1.79645,-0.7523 0.596,-0.92874 7.87365,-3.05459 8.57994,-3.87237 0.48718,-0.56409 14.59082,-6.18724 18.6068,-6.64331 3.10958,-0.35313 5.80786,-2.75065 12.12735,-2.57247 z"
       style="fill:#000000;fill-opacity:1;stroke:#000000;stroke-width:0.26458332px;stroke-linecap:butt;stroke-linejoin:miter;stroke-opacity:1" />
    <path
       style="fill:#000000;fill-opacity:1;stroke:#000000;stroke-width:0.26458332px;stroke-linecap:butt;stroke-linejoin:miter;stroke-opacity:1"
       d="m 269.96436,43.343918 c 3.20989,0.60856 6.50297,-2.85886 10.10652,-1.47984 4.57769,1.21567 4.62455,-1.5929 8.53061,-0.27213 l 1.65202,-2.15592 0.65275,2.78365 c 0,0 2.11543,1.07949 2.08724,2.69334 -0.0121,0.69749 -0.20131,1.61753 -0.82912,1.92153 -1.03332,0.5003 -2.03943,0.16567 -3.05859,-0.33636 -1.23301,0.1775 -1.43273,-0.20697 -2.37676,0.20107 -0.14439,0.0535 -2.32908,0.88101 -2.59303,1.37113 -1.02632,1.90575 1.07168,2.51358 4.13739,3.43143 3.26506,0.97753 7.64278,1.43961 7.42406,2.38809 -0.23219,1.00696 -4.1707,0.54124 -5.32954,0.18061 -4.28216,-1.33263 -4.65856,-1.56392 -5.86391,-1.65724 -10.27021,1.53194 -3.74951,-4.87779 -11.41371,-0.93887 -4.48562,2.30533 -12.32352,-0.52308 -13.8678,-0.38044 -1.22695,0.11334 -3.64262,-2.57222 -4.80553,-0.87927 -4.71651,3.55885 -7.19857,2.04454 -8.7907,1.40703 -0.13154,0.79283 -1.22105,0.44347 -1.56013,1.14668 -1.28621,2.66746 -1.81546,3.67758 -3.05645,4.88574 -0.51012,0.49664 -3.07069,-0.3133 -0.36222,-2.91402 0.51097,-1.14797 0.98189,-1.7992 1.19671,-3.07757 0.54636,-3.25149 0.13473,-1.70373 4.4255,-2.87123 0.80156,-2.0726 2.49956,-5.19232 -0.29243,-4.40247 -3.8587,1.09161 -12.58234,10.59074 -13.75677,9.23689 -1.17411,-1.35348 10.75905,-10.26111 11.72036,-10.75456 1.48945,-0.76454 6.63955,-3.31409 10.65553,-3.77016 6.649,0.0824 9.34468,3.10093 15.368,4.24289 z"
       id="path881"
       inkscape:connector-curvature="0"
       sodipodi:nodetypes="sccccssccsssscssccsscscssscs" />
    <path
       sodipodi:nodetypes="sssscccsssscscsssscsssssscssscssscsssssscssscsssss"
       inkscape:connector-curvature="0"
       id="path2478"
       d="M 6.6817382,101.89324 C 13.0697,96.91705 21.337977,93.409938 30.201456,89.732482 c 1.652054,-0.685438 5.379817,0.121742 7.100247,0.610851 3.142546,0.89341 4.825239,3.456914 8.564089,4.409948 3.020392,0.7699 9.726269,0.203811 9.726269,0.203811 l 1.80407,-2.151011 0.267268,3.00678 c 0,0 1.782429,2.150308 1.941063,3.756595 0.06856,0.694214 -0.01285,1.629954 -0.601355,2.004524 -0.968531,0.61644 -1.979918,0.31496 -3.076959,0.0196 -0.704481,-0.18969 -1.142188,-0.60461 -1.870887,-0.56893 -0.667374,0.0327 -1.603616,1.20271 -1.603616,1.20271 0,0 2.082347,1.88104 3.274052,2.60588 0.792163,0.48182 1.614532,1.06573 2.539061,1.13589 1.666437,0.72052 1.831302,0.54195 2.648375,1.67044 0.414909,0.57304 -0.757838,1.16786 -1.445664,1.00226 -2.606329,-0.6275 -4.404905,-1.80375 -6.696561,-2.95618 -1.021027,-0.51345 -2.380227,-1.05759 -3.392864,-1.5874 -0.575357,-0.30103 -1.804069,-0.735 -1.804069,-0.735 0,0 -0.935444,1.33635 -0.868625,1.60362 0.06682,0.26727 0.09576,1.83534 0.534538,2.60588 0.327687,0.57545 1.480658,0.67423 1.469982,1.33635 -0.01274,0.78986 -1.014556,1.56357 -1.804069,1.5368 -1.51081,-0.0512 -1.485035,-2.77173 -2.035554,-3.70878 -0.471157,-0.80196 -0.882153,-0.86732 -1.085291,-1.775 -0.196748,-0.87911 -0.353658,-2.20022 -0.353658,-2.20022 0,0 -2.637784,-0.0473 -3.624352,-0.60136 -1.312136,-0.73694 -1.413324,-2.617345 -2.711835,-3.378041 -0.672097,-0.393728 -1.504906,-0.46722 -2.283255,-0.497363 -0.651528,-0.02523 -1.937705,0.267269 -1.937705,0.267269 0,0 0.650657,1.343235 0.467722,2.004515 -0.256176,0.92604 -1.136717,1.65892 -2.00452,2.07134 -0.706653,0.33584 -1.580117,0.008 -2.33861,0.20046 -0.541526,0.13701 -1.5368,0.66817 -1.5368,0.66817 0,0 0.361412,1.23148 0.734991,1.73725 0.432047,0.58493 1.229802,0.82468 1.670436,1.40317 0.3563,0.46776 0.942905,1.05359 0.734991,1.60361 -0.155125,0.41038 -0.764019,0.53895 -1.202713,0.53454 -0.787096,-0.008 -1.528425,-0.50445 -2.138156,-1.00226 -0.924751,-0.755 -1.399389,-1.93538 -2.138157,-2.87315 -0.861183,-1.09315 -1.226321,-2.45218 -2.672695,-3.20723 -0.61302,-0.32002 0.39278,-0.70203 0.668174,-1.33635 0.334712,-0.770944 1.045911,-1.349457 1.336347,-2.138152 0.210075,-0.570469 0.409757,-1.213084 0.26727,-1.80407 -0.04491,-0.186258 -0.334087,-0.467722 -0.334087,-0.467722 0,0 -4.408276,1.929753 -7.149459,3.073599 -1.437214,0.599723 -3.33788,1.468845 -4.744035,2.138155 -1.606451,0.76465 -3.1221205,3.22254 -4.8108511,3.40769 -0.5961322,0.0654 -1.3057382,-0.1921 -1.6704347,-0.66817 -0.2318448,-0.30265 0.3674158,-1.77024 0.668174,-2.00453 z"
       style="fill:url(#pattern2498);fill-opacity:1.0;stroke:url(#Strips1_1);stroke-width:0.26458332px;stroke-linecap:butt;stroke-linejoin:miter;stroke-opacity:1" />
    <path
       style="fill:url(#pattern2498);fill-opacity:1.0;stroke:url(#Strips1_1);stroke-width:0.26458332px;stroke-linecap:butt;stroke-linejoin:miter;stroke-opacity:1"
       d="m 61.990548,106.0016 c 6.6242,-1.47992 10.02603,-9.003026 18.51154,-14.239634 1.52209,-0.939321 7.553183,-1.43741 9.273613,-0.948301 3.14254,0.89341 6.00641,5.110561 9.74526,6.063594 2.419699,0.536394 4.465259,-0.656381 7.033189,0.770775 l 1.80407,-2.151011 0.26727,3.00678 c 0,0 1.4517,1.866827 1.61033,3.473117 0.0686,0.69421 -0.0129,1.62995 -0.60135,2.00452 -0.96853,0.61644 -2.00658,0.4004 -3.07696,0.0196 -2.20224,-0.74212 -2.03249,-1.35845 -4.52541,-0.0184 -1.01847,0.51851 -2.474719,1.54099 -3.487349,1.01118 -0.57536,-0.30103 -1.89857,-0.92398 -1.89857,-0.92398 0,0 -0.46298,0.91113 -0.39616,1.1784 0.0668,0.26726 1.22973,2.02432 1.66847,2.79486 0.32769,0.57545 1.43342,0.81597 1.42274,1.47809 -0.0127,0.78986 -1.20354,0.94936 -1.99306,0.92259 -1.51081,-0.0512 -2.09924,-2.34651 -2.64976,-3.28355 -0.47116,-0.80196 -0.88215,-0.96182 -1.08529,-1.8695 -0.19675,-0.87911 -0.0702,-1.86949 -0.0702,-1.86949 0,0 -0.32268,-0.70872 -1.30925,-1.26282 -1.31214,-0.73694 -2.17494,-2.04923 -3.42054,-1.20468 -2.17535,1.47496 -0.58147,1.94565 -1.3172,3.54061 -0.6948,1.50622 -0.94028,0.85215 -0.85908,1.72995 0.2349,2.53926 3.51329,1.85646 3.05858,1.83885 -0.65153,-0.0252 3.89455,1.5442 1.36958,2.2044 -2.10348,0.54999 -5.82218,-1.11361 -7.800503,-2.5312 -0.78101,-0.55964 0.0917,-1.50663 -0.16189,-3.45656 -0.1009,-0.77587 -0.87141,-0.46397 -1.6299,-0.27202 -0.49875,0.35038 -0.94728,1.47899 -0.80181,1.69672 0.43204,0.58493 0.21014,1.61139 0.86723,1.92288 1.58472,0.75125 2.17133,1.28983 1.96341,1.83986 -0.15512,0.41037 -0.76402,0.53895 -1.20271,0.53454 -0.7871,-0.008 -1.52842,-0.50446 -2.13816,-1.00227 -0.92475,-0.75499 -1.8246,-2.69133 -2.56337,-3.62909 -0.3382,-0.98231 -1.72775,-0.8126 -1.23514,-1.8153 0.71593,-1.42871 1.65669,-4.700304 -1.43698,-4.681388 -0.95335,0.0058 -0.25054,1.362788 -2.5665,3.168088 -1.22825,0.95743 -2.84569,2.78066 -3.98808,3.83905 -1.80896,1.67594 -3.71111,2.70741 -5.37782,2.79348 -0.5989,0.0309 -1.30574,-0.1921 -1.67043,-0.66817 -0.23185,-0.30265 0.2961,-1.9214 0.66817,-2.00453 z"
       id="path2480"
       inkscape:connector-curvature="0"
       sodipodi:nodetypes="sssccccssccscsssssscssssssssccssssccssssss" />
    <path
       sodipodi:nodetypes="cccccsscccaccssssccscsssssc"
       inkscape:connector-curvature="0"
       id="path2482"
       d="m 138.79419,91.085116 c 3.14254,0.89341 4.589,1.094564 8.32785,2.047597 4.68756,0.678135 11.7413,-4.719625 15.77389,-3.859434 l 2.74901,-3.095951 0.26727,3.00678 c 0,0 3.29433,1.914073 3.45296,3.52036 0.0686,0.694217 -0.0129,1.629962 -0.60135,2.004522 -0.96853,0.61644 -2.00658,0.4004 -3.07696,0.0196 -2.20224,-0.74212 -2.6467,0.200704 -5.13962,1.540752 -1.01847,0.51852 -7.90813,11.037638 -8.92076,10.507828 -2.07324,-0.35121 -5.85594,-0.82893 -5.23767,-2.69202 0.50619,-1.52538 2.98873,0.48555 4.75519,0.79701 0.75814,-1.18038 1.34129,-1.8035 1.10305,-3.1266 -4.7372,1.06123 -10.18423,0.45509 -11.94521,0.82676 -1.20562,0.25445 -1.9571,1.91973 -3.92916,3.08118 -1.42928,0.84178 -1.71693,0.61386 -1.66228,1.4937 0.0932,1.49983 2.88806,0.98469 4.00352,0.94116 1.47418,-0.0575 2.85511,1.68594 0.33014,2.34614 -2.23664,-0.27074 -7.55813,-1.86343 -9.35044,-2.64875 0.4491,-3.84551 1.72096,-0.26611 1.53631,-3.5605 -0.065,-1.15993 -1.71813,-2.06079 -2.89227,-3.43643 -0.95335,0.006 0.17468,0.0399 -2.14128,1.84517 -1.22825,0.95743 -2.51496,2.30819 -5.12201,3.22484 -2.32637,0.81796 -7.49087,0.86477 -9.15758,0.95084 -0.5989,0.0309 -1.49473,-0.71182 -1.38695,-1.8021 0.0375,-0.37939 2.036,-0.51913 2.41631,-0.49261 11.09418,0.77353 14.78649,-12.522741 25.84804,-13.439844 z"
       style="fill:url(#pattern2498);fill-opacity:1.0;stroke:url(#Strips1_1);stroke-width:0.26458332px;stroke-linecap:butt;stroke-linejoin:miter;stroke-opacity:1" />
    <path
       style="fill:url(#pattern2498);fill-opacity:1.0;stroke:url(#Strips1_1);stroke-width:0.26458332px;stroke-linecap:butt;stroke-linejoin:miter;stroke-opacity:1"
       d="m 209.04625,91.463446 c 3.26578,0.0921 6.9707,-2.22409 10.57425,-0.84507 4.57769,1.21567 4.79159,-1.192 8.69765,0.12877 l 1.68543,-2.02228 -0.0822,3.01751 c 0,0 1.9818,2.41584 1.9536,4.02969 -0.0121,0.69749 -0.2013,1.61753 -0.82912,1.92153 -1.03332,0.5003 -2.03942,0.16567 -3.05858,-0.33636 -2.10165,-0.99181 -2.40159,-1.34287 -3.34562,-0.93483 -0.14439,0.0535 -0.49825,0.0728 -0.88919,0.4691 0.45759,0.96007 1.4345,2.32993 1.20476,2.6791 -2.58425,3.927734 -4.45256,5.880384 -5.17988,5.305344 -2.01872,-0.58861 -3.16357,-1.98966 -2.53591,-3.19614 0.2735,-0.52571 0.92471,-0.25786 1.77468,0.10545 1.20694,-0.90103 1.59097,-0.14959 1.50733,-1.49137 -0.45287,-0.847474 -1.18362,-2.332734 -1.83654,-1.802434 -5.63218,4.574464 -14.72894,3.218694 -16.27321,3.361334 -1.22696,0.11334 -1.33743,-1.06883 -5.4403,0.85798 -1.81345,0.85165 -3.74372,1.9499 -6.12425,1.71912 -1.15633,-0.1121 0,0 -1.9085,-0.58231 -0.94765,-0.1043 0.0744,-1.5465 -2.43479,-0.0212 -1.33073,0.80897 -2.15081,0.44272 -3.33446,1.19346 -0.96874,0.61443 -2.45418,0.98045 -3.3386,2.12702 -1.01675,1.31813 -1.40572,3.38311 -2.07792,3.29731 -1.25691,-0.16045 -0.68228,-1.29283 -0.44914,-2.36333 0.0811,-0.37251 2.528,-3.54502 2.82456,-3.7846 1.3796,-1.11456 1.40397,-0.90392 2.29919,-1.84145 0.3887,-0.40707 0.57007,-1.40254 -0.88648,-0.86671 -2.6318,0.96817 -7.22984,2.90002 -10.01436,3.71584 -1.78736,0.52367 -2.05177,-0.35444 -1.79645,-0.7523 0.596,-0.92874 7.87365,-3.05459 8.57994,-3.87237 0.48718,-0.56409 14.59082,-6.187244 18.6068,-6.643314 3.10958,-0.35313 5.80786,-2.75065 12.12735,-2.57247 z"
       id="path2484"
       inkscape:connector-curvature="0"
       sodipodi:nodetypes="sccccsscccscaccsssscsssssssssssss" />
    <path
       sodipodi:nodetypes="sccccssccsssscssccsscscssscs"
       inkscape:connector-curvature="0"
       id="path2486"
       d="m 269.96436,95.996015 c 3.20989,0.60856 6.50297,-2.85886 10.10652,-1.47984 4.57769,1.21567 4.62455,-1.5929 8.53061,-0.27213 l 1.65202,-2.15592 0.65275,2.78365 c 0,0 2.11543,1.07949 2.08724,2.69334 -0.0121,0.69749 -0.20131,1.61753 -0.82912,1.92153 -1.03332,0.5003 -2.03943,0.16567 -3.05859,-0.33636 -1.23301,0.1775 -1.43273,-0.20697 -2.37676,0.20107 -0.14439,0.0535 -2.32908,0.881005 -2.59303,1.371125 -1.02632,1.90575 1.07168,2.51358 4.13739,3.43143 3.26506,0.97753 7.64278,1.43961 7.42406,2.38809 -0.23219,1.00696 -4.1707,0.54124 -5.32954,0.18061 -4.28216,-1.33263 -4.65856,-1.56392 -5.86391,-1.65724 -10.27021,1.53194 -3.74951,-4.87779 -11.41371,-0.93887 -4.48562,2.30533 -12.32352,-0.52308 -13.8678,-0.38044 -1.22695,0.11334 -3.64262,-2.57222 -4.80553,-0.87927 -4.71651,3.55885 -7.19857,2.04454 -8.7907,1.40703 -0.13154,0.79283 -1.22105,0.44347 -1.56013,1.14668 -1.28621,2.66746 -1.81546,3.67758 -3.05645,4.88574 -0.51012,0.49664 -3.07069,-0.3133 -0.36222,-2.91402 0.51097,-1.14797 0.98189,-1.7992 1.19671,-3.07757 0.54636,-3.25149 0.13473,-1.70373 4.4255,-2.87123 0.80156,-2.072595 2.49956,-5.192315 -0.29243,-4.402465 -3.8587,1.09161 -12.58234,10.590735 -13.75677,9.236885 -1.17411,-1.35348 10.75905,-10.261105 11.72036,-10.754555 1.48945,-0.76454 6.63955,-3.31409 10.65553,-3.77016 6.649,0.0824 9.34468,3.10093 15.368,4.24289 z"
       style="fill:url(#pattern2498);fill-opacity:1.0;stroke:url(#Strips1_1);stroke-width:0.26458332px;stroke-linecap:butt;stroke-linejoin:miter;stroke-opacity:1" />
    <circle
       style="fill:#000000;fill-opacity:1;fill-rule:evenodd;stroke:none;stroke-width:0.36500001;stroke-linecap:butt;stroke-linejoin:round;stroke-miterlimit:4;stroke-dasharray:none;stroke-opacity:1;paint-order:normal"
       id="path2510"
       cx="56.744656"
       cy="97.817383"
       r="0.86862594" />
    <circle
       r="0.86862594"
       cy="100.62371"
       cx="107.9936"
       id="circle2512"
       style="fill:#000000;fill-opacity:1;fill-rule:evenodd;stroke:none;stroke-width:0.36500001;stroke-linecap:butt;stroke-linejoin:round;stroke-miterlimit:4;stroke-dasharray:none;stroke-opacity:1;paint-order:normal" />
    <circle
       style="fill:#000000;fill-opacity:1;fill-rule:evenodd;stroke:none;stroke-width:0.36500001;stroke-linecap:butt;stroke-linejoin:round;stroke-miterlimit:4;stroke-dasharray:none;stroke-opacity:1;paint-order:normal"
       id="circle2514"
       cx="165.99109"
       cy="91.302689"
       r="0.86862594" />
    <circle
       r="0.86862594"
       cy="93.54174"
       cx="229.4184"
       id="circle2516"
       style="fill:#000000;fill-opacity:1;fill-rule:evenodd;stroke:none;stroke-width:0.36500001;stroke-linecap:butt;stroke-linejoin:round;stroke-miterlimit:4;stroke-dasharray:none;stroke-opacity:1;paint-order:normal" />
    <circle
       style="fill:#000000;fill-opacity:1;fill-rule:evenodd;stroke:none;stroke-width:0.36500001;stroke-linecap:butt;stroke-linejoin:round;stroke-miterlimit:4;stroke-dasharray:none;stroke-opacity:1;paint-order:normal"
       id="circle2518"
       cx="290.35583"
       cy="96.348068"
       r="0.86862594" />
    <path
       sodipodi:nodetypes="sssscccsssscscsssscsssssscssscssscsssssscssscsssss"
       inkscape:connector-curvature="0"
       id="path2522"
       d="m 8.5454279,177.51231 c 6.3879621,-4.97619 14.6562391,-8.4833 23.5197181,-12.16076 1.652054,-0.68544 5.379817,0.12174 7.100247,0.61085 3.142546,0.89341 4.825239,3.45692 8.564089,4.40995 3.020392,0.7699 9.726269,0.20381 9.726269,0.20381 l 1.80407,-2.15101 0.267268,3.00678 c 0,0 1.782429,2.15031 1.941063,3.75659 0.06856,0.69422 -0.01285,1.62996 -0.601355,2.00453 -0.968531,0.61644 -1.979918,0.31496 -3.076959,0.0196 -0.704481,-0.18969 -1.142188,-0.60461 -1.870887,-0.56893 -0.667374,0.0327 -1.603616,1.20271 -1.603616,1.20271 0,0 2.082347,1.88103 3.274052,2.60588 0.792163,0.48182 1.614532,1.06573 2.539061,1.13589 1.666437,0.72052 1.831302,0.54195 2.648375,1.67044 0.414909,0.57304 -0.757838,1.16786 -1.445664,1.00226 -2.606329,-0.6275 -4.404905,-1.80375 -6.696561,-2.95618 -1.021027,-0.51346 -2.380227,-1.05759 -3.392864,-1.58741 -0.575357,-0.30102 -1.804069,-0.73499 -1.804069,-0.73499 0,0 -0.935444,1.33635 -0.868625,1.60362 0.06682,0.26727 0.09576,1.83534 0.534538,2.60588 0.327687,0.57545 1.480658,0.67422 1.469982,1.33635 -0.01274,0.78986 -1.014556,1.56357 -1.804069,1.5368 -1.51081,-0.0512 -1.485035,-2.77173 -2.035554,-3.70878 -0.471157,-0.80196 -0.882153,-0.86733 -1.085291,-1.775 -0.196748,-0.87911 -0.353658,-2.20022 -0.353658,-2.20022 0,0 -2.637784,-0.0473 -3.624352,-0.60136 -1.312136,-0.73694 -1.413324,-2.61735 -2.711835,-3.37804 -0.672097,-0.39373 -1.504906,-0.46722 -2.283255,-0.49737 -0.651528,-0.0252 -1.937705,0.26727 -1.937705,0.26727 0,0 0.650657,1.34324 0.467722,2.00452 -0.256176,0.92604 -1.136717,1.65892 -2.00452,2.07134 -0.706653,0.33583 -1.580117,0.009 -2.33861,0.20046 -0.541526,0.13701 -1.5368,0.66817 -1.5368,0.66817 0,0 0.361412,1.23148 0.734991,1.73725 0.432047,0.58493 1.229802,0.82468 1.670436,1.40316 0.3563,0.46777 0.942905,1.0536 0.734991,1.60362 -0.155125,0.41038 -0.764019,0.53895 -1.202713,0.53454 -0.787096,-0.008 -1.528425,-0.50445 -2.138156,-1.00226 -0.924751,-0.755 -1.399389,-1.93538 -2.138157,-2.87315 -0.861183,-1.09315 -1.226321,-2.45218 -2.672695,-3.20723 -0.61302,-0.32002 0.39278,-0.70203 0.668174,-1.33635 0.334712,-0.77095 1.045911,-1.34946 1.336347,-2.13815 0.210075,-0.57047 0.409757,-1.21309 0.26727,-1.80407 -0.04491,-0.18626 -0.334087,-0.46773 -0.334087,-0.46773 0,0 -4.408276,1.92976 -7.149459,3.0736 -1.437214,0.59973 -3.33788,1.46885 -4.744035,2.13816 -1.606451,0.76465 -3.122121,3.22254 -4.8108514,3.40769 -0.5961322,0.0654 -1.3057382,-0.19211 -1.6704347,-0.66817 -0.2318448,-0.30265 0.3674158,-1.77024 0.668174,-2.00453 z"
       style="fill:url(#pattern2321);fill-opacity:1;stroke:#000000;stroke-width:0.26458332px;stroke-linecap:butt;stroke-linejoin:miter;stroke-opacity:1" />
    <circle
       r="0.86862594"
       cy="173.17188"
       cx="58.608345"
       id="circle2536"
       style="fill:#000000;fill-opacity:1;fill-rule:evenodd;stroke:none;stroke-width:0.36500001;stroke-linecap:butt;stroke-linejoin:round;stroke-miterlimit:4;stroke-dasharray:none;stroke-opacity:1;paint-order:normal" />
    <g
       id="g2562"
       transform="translate(14.128736,41.893382)"
       inkscape:export-xdpi="96.300003"
       inkscape:export-ydpi="96.300003">
      <path
         sodipodi:nodetypes="sssccccssccscsssssscssssssssccssssccssssss"
         inkscape:connector-curvature="0"
         id="path2524"
         d="m 61.990548,139.15009 c 6.6242,-1.47991 10.02603,-9.00302 18.51154,-14.23963 1.52209,-0.93932 7.553183,-1.43741 9.273613,-0.9483 3.14254,0.89341 6.00641,5.11056 9.74526,6.0636 2.419699,0.53639 4.465259,-0.65638 7.033189,0.77077 l 1.80407,-2.15101 0.26727,3.00678 c 0,0 1.4517,1.86683 1.61033,3.47311 0.0686,0.69422 -0.0129,1.62996 -0.60135,2.00453 -0.96853,0.61644 -2.00658,0.40039 -3.07696,0.0196 -2.20224,-0.74212 -2.03249,-1.35845 -4.52541,-0.0184 -1.01847,0.51851 -2.474719,1.54099 -3.487349,1.01118 -0.57536,-0.30103 -1.89857,-0.92398 -1.89857,-0.92398 0,0 -0.46298,0.91113 -0.39616,1.17839 0.0668,0.26727 1.22973,2.02433 1.66847,2.79487 0.32769,0.57545 1.43342,0.81597 1.42274,1.47809 -0.0127,0.78986 -1.20354,0.94936 -1.99306,0.92259 -1.51081,-0.0512 -2.09924,-2.34651 -2.64976,-3.28355 -0.47116,-0.80196 -0.88215,-0.96183 -1.08529,-1.8695 -0.19675,-0.87911 -0.0702,-1.86949 -0.0702,-1.86949 0,0 -0.32268,-0.70872 -1.30925,-1.26282 -1.31214,-0.73694 -2.17494,-2.04923 -3.42054,-1.20468 -2.17535,1.47495 -0.58147,1.94565 -1.3172,3.54061 -0.6948,1.50622 -0.94028,0.85215 -0.85908,1.72994 0.2349,2.53927 3.51329,1.85647 3.05858,1.83886 -0.65153,-0.0252 3.89455,1.5442 1.36958,2.2044 -2.10348,0.54999 -5.82218,-1.11361 -7.800503,-2.5312 -0.78101,-0.55964 0.0917,-1.50663 -0.16189,-3.45656 -0.1009,-0.77587 -0.87141,-0.46397 -1.6299,-0.27202 -0.49875,0.35038 -0.94728,1.47899 -0.80181,1.69672 0.43204,0.58493 0.21014,1.61138 0.86723,1.92288 1.58472,0.75125 2.17133,1.28983 1.96341,1.83986 -0.15512,0.41037 -0.76402,0.53895 -1.20271,0.53453 -0.7871,-0.008 -1.52842,-0.50445 -2.13816,-1.00226 -0.92475,-0.75499 -1.8246,-2.69133 -2.56337,-3.6291 -0.3382,-0.9823 -1.72775,-0.81259 -1.23514,-1.81529 0.71593,-1.42871 1.65669,-4.70031 -1.43698,-4.68139 -0.95335,0.006 -0.25054,1.36279 -2.5665,3.16809 -1.22825,0.95743 -2.84569,2.78066 -3.98808,3.83905 -1.80896,1.67594 -3.71111,2.70741 -5.37782,2.79348 -0.5989,0.0309 -1.30574,-0.1921 -1.67043,-0.66817 -0.23185,-0.30265 0.2961,-1.9214 0.66817,-2.00453 z"
         style="fill:url(#pattern2498);fill-opacity:1;stroke:#000000;stroke-width:0.26458332px;stroke-linecap:butt;stroke-linejoin:miter;stroke-opacity:1" />
      <circle
         r="0.86862594"
         cy="133.50764"
         cx="107.9936"
         id="circle2538"
         style="fill:#000000;fill-opacity:1;fill-rule:evenodd;stroke:none;stroke-width:0.36500001;stroke-linecap:butt;stroke-linejoin:round;stroke-miterlimit:4;stroke-dasharray:none;stroke-opacity:1;paint-order:normal" />
    </g>
    <g
       id="g2566"
       transform="translate(24.481122,44.207084)"
       inkscape:export-xdpi="96.300003"
       inkscape:export-ydpi="96.300003">
      <path
         style="fill:url(#pattern2498);fill-opacity:1;stroke:#000000;stroke-width:0.26458332px;stroke-linecap:butt;stroke-linejoin:miter;stroke-opacity:1"
         d="m 138.79419,124.23361 c 3.14254,0.89341 4.589,1.09457 8.32785,2.0476 4.68756,0.67814 11.7413,-4.71962 15.77389,-3.85943 l 2.74901,-3.09595 0.26727,3.00678 c 0,0 3.29433,1.91407 3.45296,3.52036 0.0686,0.69421 -0.0129,1.62996 -0.60135,2.00452 -0.96853,0.61644 -2.00658,0.4004 -3.07696,0.0196 -2.20224,-0.74212 -2.6467,0.2007 -5.13962,1.54075 -1.01847,0.51852 -7.90813,11.03764 -8.92076,10.50783 -2.07324,-0.35121 -5.85594,-0.82893 -5.23767,-2.69202 0.50619,-1.52538 2.98873,0.48555 4.75519,0.79701 0.75814,-1.18038 1.34129,-1.8035 1.10305,-3.1266 -4.7372,1.06123 -10.18423,0.45509 -11.94521,0.82676 -1.20562,0.25445 -1.9571,1.91973 -3.92916,3.08118 -1.42928,0.84178 -1.71693,0.61386 -1.66228,1.4937 0.0932,1.49983 2.88806,0.98469 4.00352,0.94116 1.47418,-0.0575 2.85511,1.68594 0.33014,2.34614 -2.23664,-0.27074 -7.55813,-1.86343 -9.35044,-2.64875 0.4491,-3.84551 1.72096,-0.26611 1.53631,-3.5605 -0.065,-1.15993 -1.71813,-2.06079 -2.89227,-3.43643 -0.95335,0.006 0.17468,0.0399 -2.14128,1.84517 -1.22825,0.95743 -2.51496,2.30819 -5.12201,3.22484 -2.32637,0.81796 -7.49087,0.86477 -9.15758,0.95084 -0.5989,0.0309 -1.49473,-0.71182 -1.38695,-1.8021 0.0375,-0.37939 2.036,-0.51913 2.41631,-0.49261 11.09418,0.77353 14.78649,-12.52274 25.84804,-13.43985 z"
         id="path2526"
         inkscape:connector-curvature="0"
         sodipodi:nodetypes="cccccsscccaccssssccscsssssc" />
      <circle
         style="fill:#000000;fill-opacity:1;fill-rule:evenodd;stroke:none;stroke-width:0.36500001;stroke-linecap:butt;stroke-linejoin:round;stroke-miterlimit:4;stroke-dasharray:none;stroke-opacity:1;paint-order:normal"
         id="circle2540"
         cx="165.99109"
         cy="124.18661"
         r="0.86862594" />
    </g>
    <g
       id="g2570"
       transform="translate(28.218526,42.96367)"
       inkscape:export-xdpi="96.300003"
       inkscape:export-ydpi="96.300003">
      <path
         sodipodi:nodetypes="sccccsscccscaccsssscsssssssssssss"
         inkscape:connector-curvature="0"
         id="path2528"
         d="m 209.04625,124.61194 c 3.26578,0.0921 6.9707,-2.22409 10.57425,-0.84507 4.57769,1.21567 4.79159,-1.192 8.69765,0.12877 l 1.68543,-2.02228 -0.0822,3.01751 c 0,0 1.9818,2.41584 1.9536,4.02969 -0.0121,0.69749 -0.2013,1.61753 -0.82912,1.92153 -1.03332,0.5003 -2.03942,0.16567 -3.05858,-0.33636 -2.10165,-0.99181 -2.40159,-1.34287 -3.34562,-0.93483 -0.14439,0.0535 -0.49825,0.0728 -0.88919,0.4691 0.45759,0.96007 1.4345,2.32993 1.20476,2.6791 -2.58425,3.92773 -4.45256,5.88038 -5.17988,5.30534 -2.01872,-0.58861 -3.16357,-1.98966 -2.53591,-3.19614 0.2735,-0.52571 0.92471,-0.25786 1.77468,0.10545 1.20694,-0.90103 1.59097,-0.14959 1.50733,-1.49137 -0.45287,-0.84747 -1.18362,-2.33273 -1.83654,-1.80243 -5.63218,4.57446 -14.72894,3.21869 -16.27321,3.36133 -1.22696,0.11334 -1.33743,-1.06883 -5.4403,0.85798 -1.81345,0.85165 -3.74372,1.9499 -6.12425,1.71912 -1.15633,-0.1121 0,0 -1.9085,-0.58231 -0.94765,-0.1043 0.0744,-1.5465 -2.43479,-0.0212 -1.33073,0.80897 -2.15081,0.44272 -3.33446,1.19346 -0.96874,0.61443 -2.45418,0.98045 -3.3386,2.12702 -1.01675,1.31813 -1.40572,3.38311 -2.07792,3.29731 -1.25691,-0.16045 -0.68228,-1.29283 -0.44914,-2.36333 0.0811,-0.37251 2.528,-3.54502 2.82456,-3.7846 1.3796,-1.11456 1.40397,-0.90392 2.29919,-1.84145 0.3887,-0.40707 0.57007,-1.40254 -0.88648,-0.86671 -2.6318,0.96817 -7.22984,2.90002 -10.01436,3.71584 -1.78736,0.52367 -2.05177,-0.35444 -1.79645,-0.7523 0.596,-0.92874 7.87365,-3.05459 8.57994,-3.87237 0.48718,-0.56409 14.59082,-6.18724 18.6068,-6.64331 3.10958,-0.35313 5.80786,-2.75065 12.12735,-2.57247 z"
         style="fill:url(#pattern2498);fill-opacity:1;stroke:#000000;stroke-width:0.26458332px;stroke-linecap:butt;stroke-linejoin:miter;stroke-opacity:1" />
      <circle
         r="0.86862594"
         cy="126.42567"
         cx="229.4184"
         id="circle2542"
         style="fill:#000000;fill-opacity:1;fill-rule:evenodd;stroke:none;stroke-width:0.36500001;stroke-linecap:butt;stroke-linejoin:round;stroke-miterlimit:4;stroke-dasharray:none;stroke-opacity:1;paint-order:normal" />
    </g>
    <g
       id="g2574"
       transform="translate(29.606099,41.326847)"
       inkscape:export-xdpi="96.300003"
       inkscape:export-ydpi="96.300003">
      <path
         style="fill:url(#pattern2498);fill-opacity:1;stroke:#000000;stroke-width:0.26458332px;stroke-linecap:butt;stroke-linejoin:miter;stroke-opacity:1"
         d="m 269.96436,129.14451 c 3.20989,0.60856 6.50297,-2.85886 10.10652,-1.47984 4.57769,1.21567 4.62455,-1.5929 8.53061,-0.27213 l 1.65202,-2.15592 0.65275,2.78365 c 0,0 2.11543,1.07949 2.08724,2.69334 -0.0121,0.69749 -0.20131,1.61753 -0.82912,1.92153 -1.03332,0.5003 -2.03943,0.16567 -3.05859,-0.33636 -1.23301,0.1775 -1.43273,-0.20697 -2.37676,0.20107 -0.14439,0.0535 -2.32908,0.88101 -2.59303,1.37113 -1.02632,1.90575 1.07168,2.51358 4.13739,3.43143 3.26506,0.97753 7.64278,1.43961 7.42406,2.38809 -0.23219,1.00696 -4.1707,0.54124 -5.32954,0.18061 -4.28216,-1.33263 -4.65856,-1.56392 -5.86391,-1.65724 -10.27021,1.53194 -3.74951,-4.87779 -11.41371,-0.93887 -4.48562,2.30533 -12.32352,-0.52308 -13.8678,-0.38044 -1.22695,0.11334 -3.64262,-2.57222 -4.80553,-0.87927 -4.71651,3.55885 -7.19857,2.04454 -8.7907,1.40703 -0.13154,0.79283 -1.22105,0.44347 -1.56013,1.14668 -1.28621,2.66746 -1.81546,3.67758 -3.05645,4.88574 -0.51012,0.49664 -3.07069,-0.3133 -0.36222,-2.91402 0.51097,-1.14797 0.98189,-1.7992 1.19671,-3.07757 0.54636,-3.25149 0.13473,-1.70373 4.4255,-2.87123 0.80156,-2.0726 2.49956,-5.19232 -0.29243,-4.40247 -3.8587,1.09161 -12.58234,10.59074 -13.75677,9.23689 -1.17411,-1.35348 10.75905,-10.26111 11.72036,-10.75456 1.48945,-0.76454 6.63955,-3.31409 10.65553,-3.77016 6.649,0.0824 9.34468,3.10093 15.368,4.24289 z"
         id="path2530"
         inkscape:connector-curvature="0"
         sodipodi:nodetypes="sccccssccsssscssccsscscssscs" />
      <circle
         style="fill:#000000;fill-opacity:1;fill-rule:evenodd;stroke:none;stroke-width:0.36500001;stroke-linecap:butt;stroke-linejoin:round;stroke-miterlimit:4;stroke-dasharray:none;stroke-opacity:1;paint-order:normal"
         id="circle2544"
         cx="290.35583"
         cy="129.23199"
         r="0.86862594" />
    </g>
    <path
       sodipodi:nodetypes="cscsscccssssscsscscssaassacc"
       inkscape:connector-curvature="0"
       id="path882"
       d="m 38.97942,240.07623 c 0.509753,-5.01089 -0.946203,-13.2771 8.57172,-15.24105 4.260945,-0.87921 1.291145,-3.678 5.040062,-6.49335 -0.89306,-6.92549 0.302189,-8.6143 2.448333,-8.46569 0.356854,0.0247 1.401457,-1.93139 1.805663,-1.82071 0.340116,0.0931 0.03368,2.2428 0.400509,2.37644 l 1.80407,-2.15101 0.267268,3.00678 c 0,0 1.782429,2.15031 1.941063,3.75659 0.06856,0.69422 -0.01285,1.62996 -0.601355,2.00453 -0.968531,0.61644 -1.979918,0.31496 -3.076959,0.0196 -0.704481,-0.18969 -1.433714,1.51231 -1.100232,2.1612 1.59149,3.09676 1.314424,2.92741 -0.317756,5.73946 -1.810449,3.11919 -3.548332,13.05881 -3.053479,15.73005 2.393771,1.76235 0.831988,2.40177 -0.493124,1.75437 -0.213912,-0.10451 -1.365506,0.0881 -1.265796,-2.40758 0.175152,-4.384 1.010748,-8.51972 0.731257,-8.88455 -0.30493,0.48229 -2.297714,0.69364 -2.070618,1.94759 0.416681,2.30078 -0.03812,5.93729 -1.675658,8.12602 4.83226,2.23422 -1.454759,1.64688 -2.512977,1.74436 -2.544323,0.23437 -4.592245,-2.25299 -5.957576,-1.6086 -1.025381,0.48395 -2.525089,1.15863 -2.435216,2.26313 0.116561,1.43249 2.216231,1.96797 3.591328,2.38595 4.243565,1.28989 13.114633,-0.66028 13.305729,0.0502 0.344791,1.28192 -10.438273,1.87507 -15.670296,0.53247 -1.511305,-0.38782 -2.443537,-2.59586 -2.19217,-4.13575 0.186381,-1.14178 2.505485,-2.20102 2.51621,-2.39046 z"
       style="fill:url(#pattern2498);fill-opacity:1;stroke:#000000;stroke-width:0.26458332px;stroke-linecap:butt;stroke-linejoin:miter;stroke-opacity:1"
       inkscape:export-xdpi="96.300003"
       inkscape:export-ydpi="96.300003" />
    <circle
       style="fill:#000000;fill-opacity:1;fill-rule:evenodd;stroke:none;stroke-width:0.36500001;stroke-linecap:butt;stroke-linejoin:round;stroke-miterlimit:4;stroke-dasharray:none;stroke-opacity:1;paint-order:normal"
       id="circle2323"
       cx="58.608345"
       cy="213.59639"
       r="0.86862594"
       inkscape:export-xdpi="96.300003"
       inkscape:export-ydpi="96.300003" />
    <path
       style="color:#000000;font-style:normal;font-variant:normal;font-weight:normal;font-stretch:normal;font-size:medium;line-height:normal;font-family:sans-serif;font-variant-ligatures:normal;font-variant-position:normal;font-variant-caps:normal;font-variant-numeric:normal;font-variant-alternates:normal;font-feature-settings:normal;text-indent:0;text-align:start;text-decoration:none;text-decoration-line:none;text-decoration-style:solid;text-decoration-color:#000000;letter-spacing:normal;word-spacing:normal;text-transform:none;writing-mode:lr-tb;direction:ltr;text-orientation:mixed;dominant-baseline:auto;baseline-shift:baseline;text-anchor:start;white-space:normal;shape-padding:0;clip-rule:nonzero;display:inline;overflow:visible;visibility:visible;opacity:1;isolation:auto;mix-blend-mode:normal;color-interpolation:sRGB;color-interpolation-filters:linearRGB;solid-color:#000000;solid-opacity:1;vector-effect:none;fill:#000000;fill-opacity:1;fill-rule:nonzero;stroke:none;stroke-width:1.53734338px;stroke-linecap:butt;stroke-linejoin:miter;stroke-miterlimit:4;stroke-dasharray:none;stroke-dashoffset:0;stroke-opacity:1;color-rendering:auto;image-rendering:auto;shape-rendering:auto;text-rendering:auto;enable-background:accumulate"
       d="m 121.11068,229.61486 c -0.51715,-0.0395 -1.03469,0.0971 -1.51633,0.30627 -0.64216,0.2789 -1.26708,0.69405 -1.93969,1.18003 -1.33093,0.96178 -2.81273,2.19231 -4.4559,3.15575 0.0344,-0.011 0.0645,-0.0221 0.0991,-0.033 l -0.15014,0.0661 c 0.0176,-0.0102 0.0335,-0.0228 0.051,-0.033 -5.97235,1.9046 -9.64526,4.23623 -11.6832,6.72889 -2.04969,2.50703 -2.371287,5.21031 -1.654455,7.44651 1.788795,5.57973 4.269805,8.82683 8.338285,10.43412 a 0.77177261,0.77177261 0 0 0 0.012,0.012 c -0.18244,1.52756 -0.0146,3.02547 1.05692,4.22769 1.24977,1.4035 3.20621,2.57414 5.85513,3.75628 1.58608,0.70777 3.4278,1.39414 4.42586,3.07469 0.362,0.6094 1.06442,0.77814 1.71451,0.75966 0.65006,-0.0174 1.38514,-0.1868 2.24596,-0.47441 1.72157,-0.57524 3.93317,-1.62746 6.47065,-3.04166 5.07489,-2.82847 11.42526,-7.10986 17.32814,-11.87238 l 0.31829,-0.24922 -0.036,-0.40835 c -0.1993,-2.51963 0.54743,-6.11736 0.6816,-9.49729 0.0668,-1.68997 -0.0113,-3.34426 -0.51045,-4.82523 -0.49796,-1.48091 -1.45784,-2.78367 -2.99662,-3.61815 -1.43623,-0.7789 -2.94066,-0.9804 -4.32377,-1.38421 -1.38312,-0.40383 -2.65022,-0.95863 -3.85838,-2.42913 l -0.22821,-0.28525 h -0.3633 c -8.0248,-0.0174 -9.96096,-1.44841 -14.36455,-2.89453 h -0.003 c -0.17029,-0.0556 -0.34203,-0.089 -0.51344,-0.10209 z m -0.33329,1.54035 c 0.15456,-0.0203 0.27496,-0.008 0.37232,0.024 v 0.003 c 4.18701,1.37464 6.69701,2.8666 14.6408,2.92756 1.34587,1.45116 2.82452,2.2824 4.22169,2.69035 1.52378,0.44508 2.91028,0.65277 4.02651,1.2581 1.19429,0.64768 1.85831,1.561 2.26097,2.75941 0.40268,1.1984 0.50473,2.68488 0.44139,4.27875 -0.12027,3.027 -0.77176,6.36571 -0.64556,9.19102 -5.76139,4.62418 -11.9629,8.8095 -16.86573,11.54208 -1.36742,0.76213 -2.623,1.39691 -3.74728,1.91569 a 0.76995915,0.76995915 0 0 0 -0.0661,-0.11111 c 0,0 -0.64639,-0.99832 -1.30314,-2.14687 -0.32829,-0.57407 -0.65769,-1.18629 -0.89778,-1.71149 -0.23998,-0.52526 -0.37242,-1.00828 -0.37533,-1.07795 -0.0616,-1.65382 0.005,-2.72817 0.13512,-3.13474 0.0651,-0.20336 0.0949,-0.18674 0.0601,-0.16814 -0.0349,0.0174 -0.003,-0.007 0.20417,0.045 0.42417,0.10866 0.92947,-0.0635 1.20407,-0.32729 0.27483,-0.26379 0.41351,-0.56474 0.53146,-0.88577 0.23648,-0.64239 0.34657,-1.40839 0.42037,-2.1799 0.14758,-1.54296 0.10208,-3.0987 0.10208,-3.0987 a 0.76995915,0.76995915 0 0 0 -0.87377,-0.75967 0.76995915,0.76995915 0 0 0 -0.66056,0.79269 c 0,0 0.035,1.50464 -0.1021,2.91855 -0.0674,0.70695 -0.18202,1.39688 -0.32728,1.79256 -0.0622,0.16851 -0.12012,0.23509 -0.13812,0.26124 -0.35328,-0.0616 -0.72375,-0.10729 -1.07795,0.0781 -0.42474,0.22196 -0.66896,0.64009 -0.8047,1.06593 -0.27135,0.85181 -0.27952,1.95667 -0.21619,3.65419 0.0232,0.57117 0.25111,1.07465 0.52246,1.66946 0.27193,0.59481 0.61248,1.23884 0.95483,1.8376 0.64804,1.13321 1.22113,2.00281 1.28813,2.10484 -0.36483,0.14626 -0.72165,0.28736 -1.03891,0.39335 -0.77942,0.2603 -1.4039,0.39731 -1.79257,0.40836 -0.38872,0.0116 -0.39817,-0.0707 -0.36331,-0.012 -1.31961,-2.22197 -3.60971,-3.03086 -5.10747,-3.69923 -2.55589,-1.14065 -4.35317,-2.2585 -5.34466,-3.37195 -0.92805,-1.04226 -1.1934,-2.01275 -0.92481,-3.27587 0.19869,-0.14297 0.85077,-0.61576 1.83159,-1.28511 1.11887,-0.76355 2.46735,-1.61536 2.85851,-1.78056 1.03768,-0.4381 2.46153,-1.06564 3.33891,-1.81659 0.21964,-0.18768 0.42281,-0.38532 0.56749,-0.6816 0.14468,-0.29632 0.17005,-0.7899 -0.06,-1.13499 -0.22893,-0.34513 -0.55314,-0.4994 -0.89478,-0.61252 -0.34166,-0.11332 -0.73256,-0.18056 -1.23709,-0.2282 -0.12085,-0.0116 -0.28839,-0.0893 -0.48943,-0.31528 -0.20104,-0.22602 -0.40306,-0.57254 -0.56749,-0.93082 -0.32829,-0.71589 -0.49844,-1.44126 -0.49844,-1.44126 a 0.76995915,0.76995915 0 0 0 -0.78068,-0.61254 h -0.003 a 0.76995915,0.76995915 0 0 0 -0.71463,0.95184 c 0,0 0.18328,0.84901 0.59152,1.73852 0.20395,0.4445 0.47034,0.91242 0.82872,1.31515 0.35851,0.40266 0.85105,0.7687 1.48631,0.82872 0.24868,0.0232 0.35975,0.0575 0.52245,0.0901 -0.6073,0.44333 -1.7852,1.04691 -2.69035,1.42925 -0.79004,0.33351 -1.98118,1.15371 -3.11973,1.93067 -0.94492,0.64487 -1.51117,1.04921 -1.77155,1.23409 -3.6035,-1.42327 -5.64578,-4.16622 -7.36542,-9.53033 -0.57293,-1.7863 -0.38671,-3.82694 1.3842,-5.99324 1.77113,-2.16637 5.19799,-4.42062 11.05566,-6.27549 l 0.0781,-0.024 0.0811,-0.045 c 1.81082,-1.05314 3.3557,-2.34596 4.63005,-3.26686 0.63717,-0.46077 1.20463,-0.82738 1.65744,-1.0239 0.22631,-0.0982 0.41293,-0.15081 0.5675,-0.17114 z m 7.22731,2.80745 a 0.76874855,0.76874855 0 0 0 -0.5795,1.23709 c 0,0 0.40665,0.5623 0.97586,1.20105 0.56941,0.63884 1.25399,1.37274 2.08981,1.73852 0.86239,0.37766 1.68038,0.0579 2.34807,-0.20419 0.66766,-0.26089 1.27768,-0.51432 1.80456,-0.52245 1.11583,-0.0174 2.7354,1.00888 2.7354,1.00888 a 0.76979843,0.76979843 0 1 0 0.88577,-1.2581 c 0,0 -1.73257,-1.31152 -3.65419,-1.28213 -0.94519,0.0116 -1.72349,0.38146 -2.33905,0.62155 -0.61556,0.24055 -0.97348,0.31303 -1.16802,0.2282 -0.33875,-0.14817 -1.04207,-0.77519 -1.55536,-1.35118 -0.51306,-0.57582 -0.88577,-1.08995 -0.88577,-1.08995 a 0.76874855,0.76874855 0 0 0 -0.65758,-0.32729 z m -8.95683,1.57037 a 0.70503211,0.70503211 0 0 0 -0.70561,0.70563 0.70503211,0.70503211 0 0 0 0.70561,0.70561 0.70503211,0.70503211 0 0 0 0.70563,-0.70561 0.70503211,0.70503211 0 0 0 -0.70563,-0.70563 z m 7.45252,0.83173 a 0.70503217,0.70503217 0 0 0 -0.70562,0.70561 0.70503217,0.70503217 0 0 0 0.70562,0.70563 0.70503217,0.70503217 0 0 0 0.70561,-0.70563 0.70503217,0.70503217 0 0 0 -0.70561,-0.70561 z m -1.56137,1.44426 a 0.76995915,0.76995915 0 0 0 -0.70261,0.66959 c 0,0 -0.22012,1.4339 -0.53446,2.69035 -0.13771,0.55083 -0.30097,0.99921 -0.42938,1.28212 -1.24494,-1.34599 -2.69673,-2.1576 -3.97248,-2.02077 -1.41205,0.15137 -2.56324,0.83784 -3.02664,1.87364 0.001,-5.1e-4 0.008,5.1e-4 0.009,0 0.0744,-0.0261 -0.0226,-8e-5 -0.0691,0.12311 0.0164,-0.0429 0.0414,-0.0814 0.0601,-0.12311 -0.077,0.0287 -0.2582,0.0598 -0.50144,0.0661 -0.49504,0.0116 -1.21404,-0.0678 -1.91867,-0.19217 -1.40932,-0.24869 -2.78044,-0.64556 -2.78044,-0.64556 a 0.76995915,0.76995915 0 1 0 -0.43237,1.47428 c 0,0 1.43511,0.41438 2.95157,0.6816 0.75821,0.13364 1.52505,0.24321 2.21295,0.22519 0.34396,-0.0116 0.66713,-0.044 0.98786,-0.15613 0.32072,-0.11389 0.70039,-0.36145 0.86175,-0.78368 0.0819,-0.21441 0.84383,-0.90888 1.80458,-1.01189 0.96074,-0.10284 2.09052,0.19375 3.15575,1.69349 0.10517,0.14815 0.24782,0.30435 0.47442,0.40835 0.22661,0.104 0.5421,0.10584 0.76266,0.021 0.44102,-0.17024 0.57489,-0.44759 0.71464,-0.70261 0.27947,-0.51015 0.45118,-1.15622 0.62153,-1.8376 0.34107,-1.36284 0.57051,-2.83748 0.57051,-2.83748 a 0.76995915,0.76995915 0 0 0 -0.81973,-0.89779 z m -11.5751,2.02378 a 0.70503217,0.70503217 0 0 0 -0.70563,0.70561 0.70503217,0.70503217 0 0 0 0.70563,0.70562 0.70503217,0.70503217 0 0 0 0.70561,-0.70562 0.70503217,0.70503217 0 0 0 -0.70561,-0.70561 z m 16.04602,0.55247 a 0.70503211,0.70503211 0 0 0 -0.70261,0.70563 0.70503211,0.70503211 0 0 0 0.70261,0.70561 0.70503211,0.70503211 0 0 0 0.70561,-0.70561 0.70503211,0.70503211 0 0 0 -0.70561,-0.70563 z m 11.03463,1.89767 a 0.70503211,0.70503211 0 0 0 -0.70561,0.70561 0.70503211,0.70503211 0 0 0 0.70561,0.70562 0.70503211,0.70503211 0 0 0 0.70262,-0.70562 0.70503211,0.70503211 0 0 0 -0.70262,-0.70561 z m -16.77566,0.37233 c 0.0174,0.005 0.0396,-0.006 0.0571,0 0.11738,0.0523 0.15478,0.10847 0.15014,0.10208 -0.0593,-0.0831 -0.14617,-0.0231 -0.20719,-0.10208 z m 9.8396,1.07793 c -0.59364,0.0465 -1.11774,0.37481 -1.38421,0.78368 -0.2667,0.40847 -0.33446,0.82291 -0.38733,1.15602 -0.0523,0.33293 -0.0962,0.61131 -0.13512,0.71462 -8.1e-4,0.002 -0.23158,0.31231 -0.62454,0.60353 -0.3928,0.2911 -0.91643,0.60954 -1.42926,0.88577 -1.02571,0.55257 -2.00875,0.96384 -2.00875,0.96384 a 0.77039546,0.77039546 0 1 0 0.60051,1.41725 c 0,0 1.03055,-0.43833 2.13488,-1.03291 0.55199,-0.2975 1.12189,-0.63302 1.6124,-0.99686 0.49041,-0.36374 0.93115,-0.70832 1.15602,-1.30615 0.14642,-0.38871 0.17144,-0.72667 0.21618,-1.00888 0.0465,-0.28239 0.10473,-0.49341 0.14714,-0.5585 0.0407,-0.0651 0.002,-0.0715 0.22819,-0.0901 0.22603,-0.0174 0.71737,0.0479 1.4743,0.33028 0.94506,0.34979 1.93347,0.24272 2.71136,0.10209 0.77784,-0.14118 1.3752,-0.35129 1.3752,-0.35129 a 0.77422353,0.77422353 0 0 0 -0.53447,-1.45328 c 0,0 -0.46828,0.17747 -1.11096,0.29426 -0.6427,0.11621 -1.42719,0.14535 -1.90668,-0.033 -0.8733,-0.32306 -1.5412,-0.46917 -2.13486,-0.42036 z m -5.59389,2.58526 a 0.70503217,0.70503217 0 0 0 -0.65457,0.70561 0.70503217,0.70503217 0 0 0 0.70262,0.70261 0.70503217,0.70503217 0 0 0 0.70561,-0.70261 0.70503217,0.70503217 0 0 0 -0.70561,-0.70561 0.70503217,0.70503217 0 0 0 -0.0481,0 z m -19.9134,0.94582 a 0.70503217,0.70503217 0 0 0 -0.70561,0.70563 0.70503217,0.70503217 0 0 0 0.70561,0.70561 0.70503217,0.70503217 0 0 0 0.70562,-0.70561 0.70503217,0.70503217 0 0 0 -0.70562,-0.70563 z m 32.44335,1.61843 a 0.70503211,0.70503211 0 0 0 -0.70561,0.70561 0.70503211,0.70503211 0 0 0 0.70561,0.70561 0.70503211,0.70503211 0 0 0 0.70262,-0.70561 0.70503211,0.70503211 0 0 0 -0.70262,-0.70561 z m -28.68106,2.47415 a 0.70503217,0.70503217 0 0 0 -0.65457,0.70563 0.70503217,0.70503217 0 0 0 0.70561,0.70261 0.70503217,0.70503217 0 0 0 0.70563,-0.70261 0.70503217,0.70503217 0 0 0 -0.70563,-0.70563 0.70503217,0.70503217 0 0 0 -0.051,0 z m 9.5033,0.12311 a 0.70503217,0.70503217 0 0 0 -0.70561,0.70561 0.70503217,0.70503217 0 0 0 0.70561,0.70563 0.70503217,0.70503217 0 0 0 0.70563,-0.70563 0.70503217,0.70503217 0 0 0 -0.70563,-0.70561 z m 13.56886,0.36031 a 1.1371692,1.1371692 0 0 0 -1.13799,1.138 1.1371692,1.1371692 0 0 0 1.13799,1.13799 1.1371692,1.1371692 0 0 0 1.138,-1.13799 1.1371692,1.1371692 0 0 0 -1.138,-1.138 z m 5.6089,3.40798 a 0.70503211,0.70503211 0 0 0 -0.70561,0.70563 0.70503211,0.70503211 0 0 0 0.70561,0.70561 0.70503211,0.70503211 0 0 0 0.70262,-0.70561 0.70503211,0.70503211 0 0 0 -0.70262,-0.70563 z m -12.75514,1.23709 a 0.70503211,0.70503211 0 0 0 -0.70262,0.70561 0.70503211,0.70503211 0 0 0 0.70262,0.70562 0.70503211,0.70503211 0 0 0 0.70561,-0.70562 0.70503211,0.70503211 0 0 0 -0.70561,-0.70561 z m -8.16114,8.04402 a 0.70503211,0.70503211 0 0 0 -0.65457,0.70563 0.70503211,0.70503211 0 0 0 0.70563,0.70261 0.70503211,0.70503211 0 0 0 0.70561,-0.70261 0.70503211,0.70503211 0 0 0 -0.70561,-0.70563 0.70503211,0.70503211 0 0 0 -0.0511,0 z"
       id="path867"
       inkscape:connector-curvature="0"
       inkscape:export-xdpi="96.300003"
       inkscape:export-ydpi="96.300003" />
  </g>
</svg>
