<?xml version="1.0" encoding="UTF-8" standalone="no"?>
<!-- Created with Inkscape (http://www.inkscape.org/) -->

<svg
   xmlns:dc="http://purl.org/dc/elements/1.1/"
   xmlns:cc="http://creativecommons.org/ns#"
   xmlns:rdf="http://www.w3.org/1999/02/22-rdf-syntax-ns#"
   xmlns:svg="http://www.w3.org/2000/svg"
   xmlns="http://www.w3.org/2000/svg"
   xmlns:sodipodi="http://sodipodi.sourceforge.net/DTD/sodipodi-0.dtd"
   xmlns:inkscape="http://www.inkscape.org/namespaces/inkscape"
   width="640"
   height="480"
   viewBox="0 0 169.33333 127"
   version="1.1"
   id="svg8"
   inkscape:version="0.92.4 (5da689c313, 2019-01-14)"
   sodipodi:docname="spider.svg"
   inkscape:export-filename="/home/william/Git/williamchung.me/art175/site2/img/spider.png"
   inkscape:export-xdpi="96"
   inkscape:export-ydpi="96">
  <defs
     id="defs2">
    <inkscape:path-effect
       simplifyJustCoalesce="false"
       simplifyindividualpaths="false"
       simplify_just_coalesce="false"
       simplify_individual_paths="false"
       helper_size="0"
       smooth_angles="360"
       threshold="0.000408163"
       steps="1"
       is_visible="true"
       id="path-effect901"
       effect="simplify" />
    <inkscape:path-effect
       simplifyJustCoalesce="false"
       simplifyindividualpaths="false"
       simplify_just_coalesce="false"
       simplify_individual_paths="false"
       helper_size="0"
       smooth_angles="360"
       threshold="0.000408163"
       steps="1"
       is_visible="true"
       id="path-effect897"
       effect="simplify" />
    <inkscape:path-effect
       simplifyJustCoalesce="false"
       simplifyindividualpaths="false"
       simplify_just_coalesce="false"
       simplify_individual_paths="false"
       helper_size="0"
       smooth_angles="360"
       threshold="0.000408163"
       steps="1"
       is_visible="true"
       id="path-effect893"
       effect="simplify" />
    <inkscape:path-effect
       simplifyJustCoalesce="false"
       simplifyindividualpaths="false"
       simplify_just_coalesce="false"
       simplify_individual_paths="false"
       helper_size="0"
       smooth_angles="360"
       threshold="0.000408163"
       steps="1"
       is_visible="true"
       id="path-effect889"
       effect="simplify" />
    <inkscape:path-effect
       effect="simplify"
       id="path-effect885"
       is_visible="true"
       steps="1"
       threshold="0.000408163"
       smooth_angles="360"
       helper_size="0"
       simplify_individual_paths="false"
       simplify_just_coalesce="false"
       simplifyindividualpaths="false"
       simplifyJustCoalesce="false" />
    <inkscape:path-effect
       effect="simplify"
       id="path-effect881"
       is_visible="true"
       steps="1"
       threshold="0.000408163"
       smooth_angles="360"
       helper_size="0"
       simplify_individual_paths="false"
       simplify_just_coalesce="false"
       simplifyindividualpaths="false"
       simplifyJustCoalesce="false" />
    <inkscape:path-effect
       effect="simplify"
       id="path-effect877"
       is_visible="true"
       steps="1"
       threshold="0.000408163"
       smooth_angles="360"
       helper_size="0"
       simplify_individual_paths="false"
       simplify_just_coalesce="false"
       simplifyindividualpaths="false"
       simplifyJustCoalesce="false" />
    <inkscape:path-effect
       effect="simplify"
       id="path-effect873"
       is_visible="true"
       steps="1"
       threshold="0.000408163"
       smooth_angles="360"
       helper_size="0"
       simplify_individual_paths="false"
       simplify_just_coalesce="false"
       simplifyindividualpaths="false"
       simplifyJustCoalesce="false" />
  </defs>
  <sodipodi:namedview
     id="base"
     pagecolor="#ffffff"
     bordercolor="#666666"
     borderopacity="1.0"
     inkscape:pageopacity="0.0"
     inkscape:pageshadow="2"
     inkscape:zoom="2.001927"
     inkscape:cx="272.71614"
     inkscape:cy="321.65796"
     inkscape:document-units="mm"
     inkscape:current-layer="layer1"
     showgrid="false"
     units="px"
     inkscape:lockguides="true"
     inkscape:window-width="1680"
     inkscape:window-height="1025"
     inkscape:window-x="1600"
     inkscape:window-y="408"
     inkscape:window-maximized="1">
    <sodipodi:guide
       position="0,0"
       orientation="0,640"
       id="guide815"
       inkscape:locked="true" />
    <sodipodi:guide
       position="169.33333,0"
       orientation="-480,0"
       id="guide817"
       inkscape:locked="true" />
    <sodipodi:guide
       position="169.33333,127"
       orientation="0,-640"
       id="guide819"
       inkscape:locked="true" />
    <sodipodi:guide
       position="0,127"
       orientation="480,0"
       id="guide821"
       inkscape:locked="true" />
  </sodipodi:namedview>
  <metadata
     id="metadata5">
    <rdf:RDF>
      <cc:Work
         rdf:about="">
        <dc:format>image/svg+xml</dc:format>
        <dc:type
           rdf:resource="http://purl.org/dc/dcmitype/StillImage" />
        <dc:title />
      </cc:Work>
    </rdf:RDF>
  </metadata>
  <g
     inkscape:label="Layer 1"
     inkscape:groupmode="layer"
     id="layer1"
     transform="translate(0,-169.99998)">
    <rect
       style="fill:#ffffff;fill-opacity:1;fill-rule:nonzero;stroke:none;stroke-width:2.63196325;stroke-linecap:butt;stroke-linejoin:bevel;stroke-miterlimit:4;stroke-dasharray:none;stroke-opacity:1;paint-order:normal"
       id="rect853"
       width="169.33333"
       height="126.99998"
       x="0"
       y="169.99998" />
    <g
       id="g934">
      <path
         id="path857"
         d="m 81.044148,183.86296 -1.797307,3.11247 -1.796788,3.11299 h 0.04289 A 17.105249,17.105249 0 0 0 67.561251,205.596 17.105249,17.105249 0 0 0 72.062785,217.1338 34.210498,34.210498 0 0 0 50.456352,248.92617 34.210498,34.210498 0 0 0 84.666667,283.137 34.210498,34.210498 0 0 0 118.87698,248.92617 34.210498,34.210498 0 0 0 97.253496,217.14775 17.105249,17.105249 0 0 0 101.77208,205.596 17.105249,17.105249 0 0 0 91.822302,190.0817 l -1.793171,-3.10627 -1.796791,-3.11247 -1.797307,3.11247 -0.89245,1.54616 a 17.105249,17.105249 0 0 0 -0.875916,-0.031 17.105249,17.105249 0 0 0 -0.924491,0.046 l -0.901237,-1.56114 z"
         style="fill:#030100;fill-opacity:1;fill-rule:nonzero;stroke:none;stroke-width:1.71979165;stroke-linecap:butt;stroke-linejoin:bevel;stroke-miterlimit:4;stroke-dasharray:none;stroke-opacity:1;paint-order:normal"
         inkscape:connector-curvature="0" />
      <path
         d="m 68.103992,264.2836 c -0.37168,0.0725 -1.47753,0.32521 -1.11626,0.21155 0.077,-0.0242 0.21385,-0.07 0.31382,-0.0522 0.12013,0.0214 -0.13881,0.0881 -0.18126,0.11426 -0.10432,0.0643 -0.23019,0.009 -0.33075,0.0611 -0.12574,0.065 -0.244,0.15306 -0.39439,0.15828 -0.20169,0.007 -0.4057,-0.0544 -0.60645,0.0136 -0.15029,0.0509 -0.60597,0.18388 -0.44971,0.15617 0.0474,-0.008 0.17743,-0.0891 0.0545,-0.0834 -0.20529,0.01 -0.41237,0.0325 -0.6103,0.0874 -0.32735,0.0908 -0.63022,0.25258 -0.96529,0.32218 -0.32233,0.067 -0.64955,0.11205 -0.96446,0.21231 -0.1992,0.0634 -0.40899,0.0965 -0.61782,0.0742 -0.21411,-0.0229 -0.42945,-9.8e-4 -0.63837,0.0473 -0.34201,0.079 -0.6866,0.14574 -1.03039,0.21655 -1.22614,0.25254 -2.46133,0.45727 -3.69723,0.65458 -0.82148,0.13115 -1.6603,0.16004 -2.46998,0.35665 -0.45465,0.1104 -0.89021,0.29324 -1.35562,0.36202 -0.40465,0.0598 -0.81165,0.10176 -1.21617,0.16306 -0.73299,0.11107 -1.46792,0.2098 -2.20507,0.28783 -0.47264,0.05 -0.94489,0.1052 -1.41221,0.19455 -0.38903,0.0744 -0.79305,0.0987 -1.16519,0.23515 -0.11702,0.0429 0.18376,0.0172 0.0211,0.0392 -1.59062,0.21575 -3.18185,0.42717 -4.7731,0.63827 -1.16553,0.15462 -2.32808,0.33015 -3.49301,0.48971 -0.40302,0.0552 -0.80524,0.12441 -1.19391,0.24844 -0.34363,0.10966 -0.69097,0.20812 -1.04769,0.26865 -0.47111,0.0799 -0.95453,0.11078 -1.41115,0.25584 -0.32636,0.10368 -0.62661,0.2733 -0.95696,0.36863 -0.7281,0.21011 -1.49026,0.27644 -2.20994,0.5216 -0.50048,0.17049 -0.99446,0.3646 -1.51226,0.47923 -0.34575,0.0765 -0.68952,0.17827 -0.99811,0.35619 -0.27257,0.15715 -0.56623,0.27573 -0.87244,0.34898 -0.32242,0.0771 -0.64482,0.15552 -0.95752,0.26793 -0.26672,0.0959 -0.54625,0.15808 -0.79685,0.29634 -0.2436,0.1344 -0.49518,0.25421 -0.76166,0.33855 -0.28691,0.0908 -0.57169,0.18375 -0.84732,0.31321 -0.29708,0.13953 -0.61258,0.23611 -0.92578,0.33221 -0.31353,0.0962 -0.62346,0.20412 -0.93927,0.29244 -0.24025,0.0672 -0.40281,0.27336 -0.62261,0.37779 -0.2021,0.096 -0.42239,0.14099 -0.63411,0.21137 -0.55472,0.18439 -1.1085,0.3718 -1.66485,0.55112 -0.18566,0.0598 -0.34662,0.17111 -0.52977,0.23985 -0.34506,0.12951 -0.75788,0.17542 -1.01301,0.44707 -0.07,0.0745 -0.13597,0.1509 -0.23464,0.19488 -0.11167,0.0498 -0.25198,0.0828 -0.30734,0.20026 -0.0626,0.13274 -0.19784,0.0226 -0.29746,0.11185 -0.1955,0.1751 -0.34684,0.39168 -0.53946,0.57078 -0.10597,0.0985 -0.41452,-0.10123 -0.35877,0.0353 0.0336,0.0821 0.0181,0.21152 -0.0994,0.16353 -0.10549,-0.0431 -0.23545,-0.0469 -0.29789,0.0709 -0.0639,0.12048 -0.2072,0.0696 -0.31278,0.0545 -0.11416,-0.0164 -0.1442,0.11726 -0.22345,0.16552 -0.11389,0.0694 -0.27794,-0.0847 -0.36427,0.0312 -0.0594,0.0798 -0.11794,0.1222 -0.24622,0.12823 -0.11741,0.006 -0.12889,0.18346 -0.25384,0.17935 -0.10728,-0.004 -0.25606,-0.0788 -0.32398,0.0427 -0.0518,0.0927 -0.16435,0.20805 -0.25504,0.15932 -0.0637,-0.0342 0.11171,-0.1798 0.008,-0.0694 -0.0549,0.0584 -0.11143,0.11535 -0.16808,0.17211 m 47.42582,-20.21185 c -0.2122,-0.1061 -0.40707,-0.37834 -0.63659,-0.31829 -0.1397,0.0366 -0.27075,-0.0317 -0.37642,-0.11317 -0.0868,-0.0669 -0.19295,-0.0457 -0.29392,-0.046 -0.16839,-5.3e-4 -0.33681,-0.002 -0.50478,0.0114 -0.18983,0.0148 -0.30822,-0.18655 -0.4946,-0.18138 -0.13434,0.004 -0.26848,0.0108 -0.40315,0.0108 -13.90239,-6e-5 -27.80543,0.13417 -41.70716,-8e-5 -0.30548,-0.003 -0.61281,-0.0381 -0.91682,-0.005 -0.10634,0.0117 -0.1084,0.16215 -0.22107,0.17361 -0.12722,0.0129 -0.25536,-0.008 -0.38199,-0.0201 -0.12906,-0.0121 -0.13228,0.17233 -0.26173,0.17509 -0.19115,0.004 -0.38973,-0.0663 -0.57322,-0.0111 -0.0996,0.03 -0.11689,0.19012 -0.23316,0.17944 -0.12982,-0.0119 -0.26025,-0.0389 -0.3828,0.0422 -0.1119,0.0741 -0.24201,0.14175 -0.37973,0.0934 -0.11273,-0.0396 -0.18785,0.0545 -0.25176,0.13368 -0.0728,0.0901 -0.22017,-0.0293 -0.27384,0.10211 -0.0447,0.10945 -0.16391,0.0479 -0.24736,0.0913 -0.0835,0.0434 -0.10643,0.17857 -0.21733,0.17035 -0.0853,-0.006 -0.33232,-0.0878 -0.26357,0.057 0.0633,0.13334 -0.0978,0.091 -0.17819,0.091 -0.0455,0 -0.0911,0 -0.13665,0 m 51.24561,-14.64127 c -0.27935,0.24008 -0.70783,0.23022 -0.96615,0.48588 -0.0622,0.0615 -0.10052,0.15053 -0.20632,0.16051 -0.17632,0.0166 -0.37026,-0.0713 -0.53058,0.0386 -0.0883,0.0605 -0.18242,0.1177 -0.29535,0.11964 -0.16968,0.003 -0.35885,-0.064 -0.50997,0.0455 -0.088,0.0638 -0.18702,0.11673 -0.30058,0.11425 -0.16504,-0.004 -0.33242,-0.0334 -0.49528,0.0223 -0.16694,0.0571 -0.33145,0.16209 -0.51531,0.12726 -0.21829,-0.0413 -0.39949,0.12093 -0.60567,0.15382 -0.60199,0.096 -1.21757,-0.12238 -1.81245,0.0108 -0.17962,0.0402 -0.33653,0.15133 -0.5255,0.16233 -0.23608,0.0137 -0.47196,-0.009 -0.70832,-0.009 -2.51687,3.3e-4 -5.03384,-0.0216 -7.55061,4.9e-4 -0.33108,0.003 -0.6727,0.0502 -0.99286,-0.0612 -0.18119,-0.0631 -0.36944,-0.11034 -0.56331,-0.10678 -0.2703,0.005 -0.54226,0.0333 -0.81094,-0.0285 -0.15077,-0.0347 -0.29355,-0.12385 -0.44779,-0.12222 -0.34045,0.004 -0.68425,0.0334 -1.02126,-0.0358 -0.28599,-0.0587 -0.56898,-0.13121 -0.85781,-0.1766 -0.27246,-0.0428 -0.54357,-0.10504 -0.79559,-0.22111 -0.23098,-0.10638 -0.46686,-0.20379 -0.71698,-0.25866 -0.19441,-0.0427 -0.4027,-0.0345 -0.58705,-0.10861 -0.37423,-0.15053 -0.74217,-0.32322 -1.141,-0.40399 -0.53795,-0.10894 -1.03488,-0.35602 -1.5729,-0.46838 -0.35014,-0.0731 -0.68256,-0.20994 -1.01093,-0.34807 -0.44931,-0.18901 -0.89674,-0.38302 -1.35361,-0.55321 -0.54894,-0.20449 -1.05871,-0.49686 -1.55537,-0.80439 -0.47973,-0.29705 -0.95236,-0.61094 -1.46963,-0.83995 -0.0963,-0.0426 -0.18485,-0.0965 -0.2683,-0.16171 -0.25105,-0.1962 -0.49794,-0.40642 -0.79793,-0.52679 -0.19815,-0.0795 -0.39315,-0.17817 -0.53835,-0.34057 -0.1459,-0.16319 -0.28868,-0.33487 -0.48276,-0.44464 -0.16521,-0.0934 -0.32323,-0.20079 -0.45307,-0.34162 -0.15696,-0.17025 -0.31102,-0.35005 -0.51723,-0.46341 -0.16761,-0.0921 -0.32257,-0.20569 -0.45537,-0.3442 -0.16732,-0.17451 -0.33849,-0.34485 -0.51056,-0.51492 -0.27975,-0.2765 -0.45735,-0.6353 -0.73663,-0.91405 -0.28883,-0.28829 -0.65657,-0.51371 -0.85826,-0.87567 -0.12445,-0.22334 -0.17897,-0.48668 -0.36546,-0.67424 -0.16567,-0.16662 -0.36453,-0.30442 -0.48669,-0.5107 -0.10274,-0.17349 -0.21356,-0.3423 -0.35415,-0.48919 -0.23529,-0.24582 -0.53722,-0.43426 -0.71911,-0.72527 -0.10923,-0.17476 -0.19451,-0.37916 -0.38299,-0.48766 -0.15426,-0.0888 -0.32389,-0.16469 -0.4308,-0.31591 -0.11775,-0.16655 -0.21365,-0.34658 -0.32652,-0.51686 -0.20978,-0.31649 -0.80955,-1.28393 -0.62783,-0.95051 0.0356,0.0653 0.15743,0.25298 0.10684,0.20764 -0.13035,-0.11682 -0.23727,-0.25807 -0.34438,-0.39603 -0.14678,-0.18905 -0.2479,-0.40945 -0.41195,-0.58688 -0.24787,-0.26808 -0.50897,-0.52412 -0.78391,-0.76391 -0.14001,-0.12211 -0.26487,-0.26186 -0.34686,-0.43268 -0.0841,-0.17531 -0.10427,-0.4107 -0.27277,-0.51811 -0.10332,-0.0659 -0.14296,-0.18045 -0.18818,-0.28782 -0.0917,-0.21762 -0.27795,-0.36944 -0.46673,-0.49476 -0.0938,-0.0623 -0.0354,-0.17384 -0.076,-0.25794 -0.0403,-0.0836 -0.21162,-0.11482 -0.16332,-0.21782 0.0547,-0.11663 -0.0979,-0.15345 -0.13989,-0.23626 -0.0436,-0.086 0.008,-0.18242 -0.0837,-0.26999 -0.0855,-0.0815 -0.30093,-0.13258 -0.25552,-0.24932 0.044,-0.11323 -0.0332,-0.18674 -0.11902,-0.25604 -0.0901,-0.0728 0.0265,-0.21371 -0.10211,-0.27384 -0.0944,-0.0441 -0.13392,-0.15543 -0.0839,-0.24385 0.0482,-0.0852 0.0191,-0.17165 -0.10964,-0.15607 -0.12605,0.0152 -0.057,-0.13576 -0.057,-0.21038 0,-0.56866 0,-1.13732 0,-1.70598 m 48.69935,3.66082 c -1.18368,3.8e-4 -2.36754,-0.0197 -3.55104,5.7e-4 -0.25873,0.004 -0.53138,0.0822 -0.77791,-0.009 -0.1192,-0.0443 -0.20974,-0.14981 -0.3452,-0.15842 -0.16105,-0.0102 -0.32108,0.0254 -0.48304,-0.002 -0.58873,-0.0995 -1.12999,-0.36441 -1.70508,-0.51588 -0.39897,-0.10508 -0.8127,-0.16001 -1.20002,-0.30329 -0.17439,-0.0645 -0.35025,-0.12555 -0.5332,-0.16236 -0.30507,-0.0614 -0.61381,-0.10658 -0.91371,-0.1916 -0.46698,-0.13238 -0.94797,-0.20224 -1.42118,-0.30766 -0.31409,-0.07 -0.62319,-0.16557 -0.9176,-0.29385 -0.0821,-0.0358 -0.17096,-0.0625 -0.24339,-0.1169 -0.0535,-0.0402 -0.13635,-0.0385 -0.20376,-0.0515 -0.52252,-0.10012 -1.04421,-0.20457 -1.56669,-0.30498 -0.50462,-0.097 -1.00426,-0.21741 -1.50114,-0.34832 -0.48908,-0.12885 -0.97922,-0.25545 -1.47766,-0.34447 -0.21444,-0.0383 -0.42702,-0.0883 -0.63096,-0.1669 -0.34204,-0.13189 -0.71258,-0.16542 -1.05432,-0.29871 -0.18547,-0.0723 -0.37865,-0.12105 -0.57391,-0.1582 -0.19116,-0.0364 -0.37595,-0.10114 -0.54795,-0.19326 -0.19829,-0.1062 -0.39282,-0.22616 -0.61463,-0.2788 -0.14985,-0.0356 -0.29474,-0.0936 -0.41977,-0.18568 -0.15136,-0.11148 -0.29972,-0.23652 -0.48755,-0.28316 -0.1471,-0.0365 -0.29549,-0.0774 -0.42392,-0.16205 -0.16347,-0.10778 -0.31977,-0.2248 -0.48896,-0.32536 -0.0842,-0.0501 -0.18218,-0.0698 -0.26845,-0.11509 -0.15271,-0.0802 -0.28493,-0.1936 -0.41803,-0.3019 -0.23856,-0.19412 -0.38578,-0.49086 -0.65345,-0.64612 -0.10713,-0.0621 -0.25569,-0.0677 -0.32455,-0.18379 -0.0632,-0.1065 -0.0808,-0.23488 -0.17046,-0.32879 -0.11665,-0.12224 -0.27513,-0.21539 -0.33583,-0.38217 -0.0381,-0.10474 -0.0871,-0.20722 -0.1713,-0.2844 -0.11221,-0.10283 -0.23123,-0.20078 -0.30947,-0.33554 -0.16134,-0.27789 -0.21004,-0.62032 -0.41942,-0.86553 -0.0576,-0.0675 -0.13322,-0.11563 -0.18048,-0.1948 -0.11713,-0.19623 -0.14567,-0.44674 -0.30586,-0.61175 -0.0585,-0.0603 -0.12707,-0.1093 -0.17201,-0.18374 -0.13642,-0.22597 -0.23233,-0.47238 -0.34801,-0.70916 -0.0637,-0.1304 -0.13445,-0.25684 -0.2044,-0.38407 -0.0659,-0.11991 -0.0635,-0.26396 -0.11072,-0.3904 -0.0176,-0.0473 -0.0239,-0.16617 0.0433,-0.0812 0.0398,0.0504 0.11867,0.20755 0.11315,0.19354 -0.0992,-0.25168 -0.18901,-0.50762 -0.30279,-0.75304 -0.0937,-0.20204 -0.1948,-0.40082 -0.30647,-0.59334 -0.0668,-0.11517 -0.1503,-0.23694 -0.13306,-0.37789 0.0105,-0.086 0.0116,-0.17207 -0.006,-0.25859 -0.0327,-0.15855 -0.0842,-0.31282 -0.16838,-0.45381 -0.12523,-0.20963 -0.20379,-0.44213 -0.29212,-0.66857 -0.0365,-0.0935 -0.16269,-0.36579 -0.10947,-0.28067 0.0505,0.0807 0.0746,0.30551 0.14955,0.24469 0.0492,-0.0399 0.007,-0.15097 -0.007,-0.21483 -0.0242,-0.11077 -0.0476,-0.22393 -0.11134,-0.32049 -0.098,-0.14848 -0.15176,-0.31928 -0.21597,-0.48369 -0.0442,-0.11327 -0.19757,-0.4428 -0.13311,-0.33971 0.0505,0.0807 0.0746,0.30548 0.14955,0.24468 0.0492,-0.0399 0.007,-0.15099 -0.007,-0.21482 -0.0237,-0.10722 -0.045,-0.21765 -0.11097,-0.30911 -0.0594,-0.0823 -0.0958,-0.1785 -0.10167,-0.2814 -0.0157,-0.27703 0.0698,-0.55616 0.0182,-0.83021 -0.0398,-0.21148 -0.16792,-0.39819 -0.17363,-0.61918 -0.007,-0.28559 0.0122,-0.57079 0.0122,-0.85647 0,-2.05847 0,-4.11693 0,-6.1754 m 59.861078,61.43084 c 0.37168,0.0725 1.47753,0.32521 1.11626,0.21155 -0.077,-0.0242 -0.21385,-0.07 -0.31382,-0.0522 -0.12013,0.0214 0.13881,0.0881 0.18126,0.11426 0.10432,0.0643 0.23019,0.009 0.33075,0.0611 0.12574,0.065 0.244,0.15306 0.39439,0.15828 0.20169,0.007 0.4057,-0.0544 0.60645,0.0136 0.15029,0.0509 0.60597,0.18388 0.44971,0.15617 -0.0474,-0.008 -0.17744,-0.0891 -0.0545,-0.0834 0.2053,0.009 0.41236,0.0325 0.6103,0.0874 0.32735,0.0908 0.63009,0.25325 0.96529,0.32218 0.32917,0.0677 0.66282,0.11533 0.98421,0.21799 0.19932,0.0637 0.40978,0.0904 0.61803,0.0673 0.35394,-0.0393 0.69717,0.0726 1.03965,0.14263 0.87863,0.17959 1.75901,0.35113 2.64403,0.49649 0.58437,0.096 1.16649,0.2059 1.75199,0.29465 0.79249,0.12012 1.60015,0.15302 2.38034,0.34247 0.45465,0.1104 0.89021,0.29324 1.35562,0.36202 0.40465,0.0598 0.81163,0.10184 1.21617,0.16306 0.73962,0.11193 1.48114,0.21201 2.225,0.29008 0.46605,0.0489 0.93155,0.10429 1.39228,0.1923 0.38905,0.0743 0.79305,0.0987 1.16519,0.23515 0.11702,0.0429 -0.18376,0.0172 -0.0211,0.0392 1.62541,0.2204 3.25138,0.43682 4.87746,0.65218 1.13077,0.14976 2.2585,0.32101 3.38865,0.4758 0.40302,0.0552 0.80534,0.1241 1.19391,0.24844 0.34798,0.11135 0.70007,0.20995 1.06146,0.2709 0.46662,0.0787 0.94521,0.10994 1.39738,0.25359 0.32636,0.10368 0.62661,0.2733 0.95696,0.36863 0.7281,0.21011 1.49026,0.27644 2.20994,0.5216 0.50048,0.17049 0.99446,0.3646 1.51226,0.47923 0.34575,0.0765 0.68972,0.17793 0.99811,0.35619 0.27748,0.16039 0.57723,0.27979 0.88932,0.35323 0.3222,0.0758 0.64287,0.158 0.9555,0.26885 0.26218,0.093 0.53604,0.15548 0.78199,0.29117 0.2436,0.1344 0.49518,0.25421 0.76166,0.33855 0.28691,0.0908 0.57169,0.18375 0.84732,0.31321 0.29708,0.13953 0.61258,0.23611 0.92578,0.33221 0.31353,0.0962 0.62332,0.20462 0.93927,0.29244 0.27642,0.0768 0.45435,0.33083 0.72341,0.4214 0.20642,0.0695 0.41597,0.12858 0.62283,0.1976 0.52965,0.17671 1.06118,0.34794 1.59012,0.5266 0.17962,0.0607 0.33672,0.16762 0.51498,0.23453 0.34506,0.12951 0.75788,0.17542 1.01301,0.44707 0.07,0.0745 0.13597,0.1509 0.23464,0.19488 0.11167,0.0498 0.25198,0.0828 0.30734,0.20026 0.0626,0.13274 0.19784,0.0226 0.29746,0.11185 0.1955,0.1751 0.34684,0.39168 0.53946,0.57078 0.10597,0.0985 0.41452,-0.10123 0.35877,0.0353 -0.0336,0.0821 -0.0181,0.21152 0.0994,0.16353 0.10549,-0.0431 0.23545,-0.0469 0.29789,0.0709 0.0639,0.12048 0.2072,0.0696 0.31278,0.0545 0.11416,-0.0164 0.1442,0.11726 0.22345,0.16552 0.11389,0.0694 0.27794,-0.0847 0.36427,0.0312 0.0594,0.0798 0.11794,0.1222 0.24622,0.12823 0.11741,0.006 0.12889,0.18346 0.25384,0.17935 0.10728,-0.004 0.25606,-0.0788 0.32398,0.0427 0.0518,0.0927 0.16435,0.20805 0.25504,0.15932 0.0637,-0.0342 -0.11171,-0.1798 -0.008,-0.0694 0.0549,0.0584 0.11143,0.11535 0.16808,0.17211 m -47.42582,-20.21179 c 0.2122,-0.1061 0.40707,-0.37834 0.63659,-0.31829 0.1397,0.0366 0.27075,-0.0317 0.37642,-0.11317 0.0868,-0.0669 0.19295,-0.0457 0.29392,-0.046 0.16839,-5.3e-4 0.33681,-0.002 0.50478,0.0114 0.18983,0.0148 0.30822,-0.18655 0.4946,-0.18138 0.13434,0.004 0.26848,0.0108 0.40315,0.0108 13.90239,-6e-5 27.80543,0.13417 41.70716,-8e-5 0.30548,-0.003 0.61281,-0.0381 0.91682,-0.005 0.10634,0.0117 0.1084,0.16215 0.22107,0.17361 0.12722,0.0129 0.25536,-0.008 0.38199,-0.0201 0.12906,-0.0121 0.13228,0.17233 0.26173,0.17509 0.19115,0.004 0.38973,-0.0663 0.57322,-0.0111 0.0996,0.03 0.11689,0.19012 0.23316,0.17944 0.12982,-0.0119 0.26025,-0.0389 0.3828,0.0422 0.1119,0.0741 0.24201,0.14175 0.37973,0.0934 0.11273,-0.0396 0.18785,0.0545 0.25176,0.13368 0.0728,0.0901 0.22017,-0.0293 0.27384,0.10211 0.0447,0.10945 0.16391,0.0479 0.24736,0.0913 0.0835,0.0434 0.10643,0.17857 0.21733,0.17035 0.0853,-0.006 0.33232,-0.0878 0.26357,0.057 -0.0633,0.13334 0.0978,0.091 0.17819,0.091 0.0455,0 0.0911,0 0.13665,0 m -51.24561,-14.64127 c 0.27935,0.24008 0.70783,0.23022 0.96615,0.48588 0.0622,0.0615 0.10052,0.15053 0.20632,0.16051 0.17632,0.0166 0.37026,-0.0713 0.53058,0.0386 0.0883,0.0605 0.18242,0.1177 0.29535,0.11964 0.16968,0.003 0.35885,-0.064 0.50997,0.0455 0.088,0.0638 0.18702,0.11673 0.30058,0.11425 0.16504,-0.004 0.33242,-0.0334 0.49528,0.0223 0.16694,0.0571 0.33145,0.16209 0.51531,0.12726 0.21829,-0.0413 0.39949,0.12093 0.60567,0.15382 0.60199,0.096 1.21757,-0.12238 1.81245,0.0108 0.17962,0.0402 0.33653,0.15133 0.5255,0.16233 0.23608,0.0137 0.47196,-0.009 0.70832,-0.009 2.51687,3.3e-4 5.03384,-0.0216 7.55061,4.9e-4 0.33108,0.003 0.6727,0.0502 0.99286,-0.0612 0.18119,-0.0631 0.36944,-0.11034 0.56331,-0.10678 0.2703,0.005 0.54226,0.0333 0.81094,-0.0285 0.15077,-0.0347 0.29355,-0.12385 0.44779,-0.12222 0.34045,0.004 0.68425,0.0334 1.02126,-0.0358 0.28599,-0.0587 0.56898,-0.13121 0.85781,-0.1766 0.27246,-0.0428 0.54357,-0.10504 0.79559,-0.22111 0.23098,-0.10638 0.46686,-0.20379 0.71698,-0.25866 0.19441,-0.0427 0.4027,-0.0345 0.58705,-0.10861 0.37423,-0.15053 0.74217,-0.32322 1.141,-0.40399 0.53795,-0.10894 1.03488,-0.35602 1.5729,-0.46838 0.35014,-0.0731 0.68256,-0.20994 1.01093,-0.34807 0.44931,-0.18901 0.89674,-0.38302 1.35361,-0.55321 0.54894,-0.20449 1.05871,-0.49686 1.55537,-0.80439 0.47973,-0.29705 0.95236,-0.61094 1.46963,-0.83995 0.0963,-0.0426 0.18485,-0.0965 0.2683,-0.16171 0.25105,-0.1962 0.49794,-0.40642 0.79793,-0.52679 0.19815,-0.0795 0.39315,-0.17817 0.53835,-0.34057 0.1459,-0.16319 0.28868,-0.33487 0.48276,-0.44464 0.16521,-0.0934 0.32323,-0.20079 0.45307,-0.34162 0.15696,-0.17025 0.31102,-0.35005 0.51723,-0.46341 0.16761,-0.0921 0.32257,-0.20569 0.45537,-0.3442 0.16732,-0.17451 0.33849,-0.34485 0.51056,-0.51492 0.27975,-0.2765 0.45735,-0.6353 0.73663,-0.91405 0.28883,-0.28829 0.65657,-0.51371 0.85826,-0.87567 0.12445,-0.22334 0.17897,-0.48668 0.36546,-0.67424 0.16567,-0.16662 0.36453,-0.30442 0.48669,-0.5107 0.10274,-0.17349 0.21356,-0.3423 0.35415,-0.48919 0.23529,-0.24582 0.53722,-0.43426 0.71911,-0.72527 0.10923,-0.17476 0.19451,-0.37916 0.38299,-0.48766 0.15426,-0.0888 0.32389,-0.16469 0.4308,-0.31591 0.11775,-0.16655 0.21365,-0.34658 0.32652,-0.51686 0.20978,-0.31649 0.80955,-1.28393 0.62783,-0.95051 -0.0356,0.0653 -0.15743,0.25298 -0.10684,0.20764 0.13035,-0.11682 0.23727,-0.25807 0.34438,-0.39603 0.14678,-0.18905 0.2479,-0.40945 0.41195,-0.58688 0.24787,-0.26808 0.50897,-0.52412 0.78391,-0.76391 0.14001,-0.12211 0.26487,-0.26186 0.34686,-0.43268 0.0841,-0.17531 0.10427,-0.4107 0.27277,-0.51811 0.10332,-0.0659 0.14296,-0.18045 0.18818,-0.28782 0.0917,-0.21762 0.27795,-0.36944 0.46673,-0.49476 0.0938,-0.0623 0.0354,-0.17384 0.076,-0.25794 0.0403,-0.0836 0.21162,-0.11482 0.16332,-0.21782 -0.0547,-0.11663 0.0979,-0.15345 0.13989,-0.23626 0.0436,-0.086 -0.008,-0.18242 0.0837,-0.26999 0.0855,-0.0815 0.30093,-0.13258 0.25552,-0.24932 -0.044,-0.11323 0.0332,-0.18674 0.11902,-0.25604 0.0901,-0.0728 -0.0265,-0.21371 0.10211,-0.27384 0.0944,-0.0441 0.13392,-0.15543 0.0839,-0.24385 -0.0482,-0.0852 -0.0191,-0.17165 0.10964,-0.15607 0.12605,0.0152 0.057,-0.13576 0.057,-0.21038 0,-0.56866 0,-1.13732 0,-1.70598 m -48.699343,3.66082 c 1.183673,3.8e-4 2.367533,-0.0197 3.551033,5.7e-4 0.25873,0.004 0.53138,0.0822 0.77791,-0.009 0.1192,-0.0443 0.20974,-0.14981 0.3452,-0.15842 0.16105,-0.0102 0.32108,0.0254 0.48304,-0.002 0.58873,-0.0995 1.12999,-0.36441 1.70508,-0.51588 0.39897,-0.10508 0.8127,-0.16001 1.20002,-0.30329 0.17439,-0.0645 0.35025,-0.12555 0.5332,-0.16236 0.30507,-0.0614 0.61381,-0.10658 0.91371,-0.1916 0.46698,-0.13238 0.94797,-0.20224 1.42118,-0.30766 0.31409,-0.07 0.62319,-0.16557 0.9176,-0.29385 0.0821,-0.0358 0.17096,-0.0625 0.24339,-0.1169 0.0535,-0.0402 0.13635,-0.0385 0.20376,-0.0515 0.52252,-0.10012 1.04421,-0.20457 1.56669,-0.30498 0.50462,-0.097 1.00426,-0.21741 1.50114,-0.34832 0.48908,-0.12885 0.97922,-0.25545 1.47766,-0.34447 0.21444,-0.0383 0.42702,-0.0883 0.63096,-0.1669 0.34204,-0.13189 0.71258,-0.16542 1.05432,-0.29871 0.18547,-0.0723 0.37865,-0.12105 0.57391,-0.1582 0.19116,-0.0364 0.37595,-0.10114 0.54795,-0.19326 0.19829,-0.1062 0.39282,-0.22616 0.61463,-0.2788 0.14985,-0.0356 0.29474,-0.0936 0.41977,-0.18568 0.15136,-0.11148 0.29972,-0.23652 0.48755,-0.28316 0.1471,-0.0365 0.29549,-0.0774 0.42392,-0.16205 0.16347,-0.10778 0.31977,-0.2248 0.48896,-0.32536 0.0842,-0.0501 0.18218,-0.0698 0.26845,-0.11509 0.15271,-0.0802 0.28493,-0.1936 0.41803,-0.3019 0.23856,-0.19412 0.38578,-0.49086 0.65345,-0.64612 0.10713,-0.0621 0.25569,-0.0677 0.32455,-0.18379 0.0632,-0.1065 0.0808,-0.23488 0.17046,-0.32879 0.11665,-0.12224 0.27513,-0.21539 0.33583,-0.38217 0.0381,-0.10474 0.0871,-0.20722 0.1713,-0.2844 0.11221,-0.10283 0.23123,-0.20078 0.30947,-0.33554 0.16134,-0.27789 0.21004,-0.62032 0.41942,-0.86553 0.0576,-0.0675 0.13322,-0.11563 0.18048,-0.1948 0.11713,-0.19623 0.14567,-0.44674 0.30586,-0.61175 0.0585,-0.0603 0.12708,-0.1093 0.17201,-0.18374 0.13642,-0.22597 0.23233,-0.47238 0.34801,-0.70916 0.0637,-0.1304 0.13446,-0.25684 0.2044,-0.38407 0.0659,-0.11991 0.0635,-0.26396 0.11072,-0.3904 0.0176,-0.0473 0.0239,-0.16617 -0.0433,-0.0812 -0.0398,0.0504 -0.11867,0.20755 -0.11315,0.19354 0.0992,-0.25168 0.18901,-0.50762 0.3028,-0.75304 0.0937,-0.20204 0.19479,-0.40082 0.30646,-0.59334 0.0668,-0.11517 0.1503,-0.23694 0.13306,-0.37789 -0.0105,-0.086 -0.0116,-0.17207 0.006,-0.25859 0.0327,-0.15855 0.0842,-0.31282 0.16838,-0.45381 0.12523,-0.20963 0.20379,-0.44213 0.29212,-0.66857 0.0365,-0.0935 0.16269,-0.36579 0.10947,-0.28067 -0.0505,0.0807 -0.0746,0.30551 -0.14954,0.24469 -0.0492,-0.0399 -0.007,-0.15097 0.007,-0.21483 0.0242,-0.11077 0.0476,-0.22393 0.11134,-0.32049 0.098,-0.14848 0.15176,-0.31928 0.21597,-0.48369 0.0442,-0.11327 0.19757,-0.4428 0.13311,-0.33971 -0.0505,0.0807 -0.0746,0.30548 -0.14955,0.24468 -0.0492,-0.0399 -0.007,-0.15099 0.007,-0.21482 0.0237,-0.10722 0.045,-0.21765 0.11097,-0.30911 0.0594,-0.0823 0.0958,-0.1785 0.10167,-0.2814 0.0157,-0.27703 -0.0698,-0.55616 -0.0182,-0.83021 0.0398,-0.21148 0.16792,-0.39819 0.17363,-0.61918 0.007,-0.28559 -0.0122,-0.57079 -0.0122,-0.85647 0,-2.05847 0,-4.11693 0,-6.1754"
         style="fill:none;fill-opacity:1;stroke:#000000;stroke-width:2.56500006;stroke-linecap:round;stroke-linejoin:round;stroke-miterlimit:4;stroke-dasharray:none;stroke-opacity:1"
         id="path899"
         inkscape:connector-curvature="0" />
    </g>
    <g
       id="g851"
       style="fill:#ff7300;fill-opacity:1">
      <circle
         transform="scale(1,-1)"
         r="2.0531254"
         cy="-193.02328"
         cx="82.35379"
         id="path920"
         style="fill:#ff7300;fill-opacity:1;fill-rule:nonzero;stroke:none;stroke-width:1.35072398;stroke-linecap:round;stroke-linejoin:round;stroke-miterlimit:4;stroke-dasharray:none;stroke-opacity:1;paint-order:normal" />
      <circle
         transform="scale(1,-1)"
         style="fill:#ff7300;fill-opacity:1;fill-rule:nonzero;stroke:none;stroke-width:0.95945281;stroke-linecap:round;stroke-linejoin:round;stroke-miterlimit:4;stroke-dasharray:none;stroke-opacity:1;paint-order:normal"
         id="circle936"
         cx="78.521027"
         cy="-194.34492"
         r="1.4583859" />
      <circle
         transform="scale(1,-1)"
         r="1.0288519"
         cy="-196.03003"
         cx="76.009903"
         id="circle938"
         style="fill:#ff7300;fill-opacity:1;fill-rule:nonzero;stroke:none;stroke-width:0.67686802;stroke-linecap:round;stroke-linejoin:round;stroke-miterlimit:4;stroke-dasharray:none;stroke-opacity:1;paint-order:normal" />
      <circle
         transform="scale(1,-1)"
         style="fill:#ff7300;fill-opacity:1;fill-rule:nonzero;stroke:none;stroke-width:1.35072398;stroke-linecap:round;stroke-linejoin:round;stroke-miterlimit:4;stroke-dasharray:none;stroke-opacity:1;paint-order:normal"
         id="circle940"
         cx="86.979546"
         cy="-193.02328"
         r="2.0531254" />
      <circle
         transform="scale(1,-1)"
         r="1.4583859"
         cy="-194.34492"
         cx="90.812309"
         id="circle942"
         style="fill:#ff7300;fill-opacity:1;fill-rule:nonzero;stroke:none;stroke-width:0.95945281;stroke-linecap:round;stroke-linejoin:round;stroke-miterlimit:4;stroke-dasharray:none;stroke-opacity:1;paint-order:normal" />
      <circle
         transform="scale(1,-1)"
         style="fill:#ff7300;fill-opacity:1;fill-rule:nonzero;stroke:none;stroke-width:0.67686802;stroke-linecap:round;stroke-linejoin:round;stroke-miterlimit:4;stroke-dasharray:none;stroke-opacity:1;paint-order:normal"
         id="circle944"
         cx="93.323433"
         cy="-196.03003"
         r="1.0288519" />
    </g>
  </g>
</svg>
